M48
; DRILL file {KiCad 6.0.5} date Wed 03 Aug 2022 01:04:30 PM EDT
; FORMAT={-:-/ absolute / inch / decimal}
; #@! TF.CreationDate,2022-08-03T13:04:30-04:00
; #@! TF.GenerationSoftware,Kicad,Pcbnew,6.0.5
; #@! TF.FileFunction,NonPlated,1,2,NPTH
FMAT,2
INCH
; #@! TA.AperFunction,NonPlated,NPTH,ComponentDrill
T1C0.0197
; #@! TA.AperFunction,NonPlated,NPTH,ComponentDrill
T2C0.0315
; #@! TA.AperFunction,NonPlated,NPTH,ComponentDrill
T3C0.0354
; #@! TA.AperFunction,NonPlated,NPTH,ComponentDrill
T4C0.0669
; #@! TA.AperFunction,NonPlated,NPTH,ComponentDrill
T5C0.0709
; #@! TA.AperFunction,NonPlated,NPTH,ComponentDrill
T6C0.1929
%
G90
G05
T1
X5.875Y-3.49
X5.875Y-3.53
X5.875Y-3.57
X5.875Y-3.61
X5.875Y-3.65
X5.875Y-4.2975
X5.875Y-4.3375
X5.875Y-4.3775
X5.875Y-4.4175
X5.875Y-4.4575
X5.955Y-3.49
X5.955Y-3.53
X5.955Y-3.57
X5.955Y-3.61
X5.955Y-3.65
X5.955Y-4.2975
X5.955Y-4.3375
X5.955Y-4.3775
X5.955Y-4.4175
X5.955Y-4.4575
T2
X5.4169Y-4.6746
X5.6925Y-4.6746
X6.1365Y-4.6746
X6.4121Y-4.6746
T3
X5.4765Y-3.3067
X5.5946Y-3.3067
X6.2745Y-3.3267
X6.3926Y-3.3267
T4
X1.5717Y-3.0315
X1.5717Y-3.7795
X1.5717Y-4.5276
X1.9717Y-3.0315
X1.9717Y-3.7795
X1.9717Y-4.5276
X2.3197Y-2.5591
X2.3197Y-3.31
X2.32Y-4.06
X2.7197Y-2.5591
X2.7197Y-3.31
X2.72Y-4.06
X3.0677Y-2.3173
X3.0677Y-3.0661
X3.0677Y-3.8148
X3.4677Y-2.3173
X3.4677Y-3.0661
X3.4677Y-3.8148
X3.8155Y-2.4973
X3.8157Y-3.2461
X3.8157Y-3.9948
X4.1876Y-4.8415
X4.2155Y-2.4973
X4.2157Y-3.2461
X4.2157Y-3.9948
X4.563Y-3.3461
X4.563Y-4.0948
X4.5638Y-2.5984
X4.574Y-4.945
X4.963Y-3.3461
X4.963Y-4.0948
X4.9638Y-2.5984
X4.9823Y-5.1167
X5.3287Y-5.3167
X6.4902Y-5.3182
X6.8366Y-5.1182
X6.8703Y-2.5984
X6.8703Y-3.3461
X6.8703Y-4.0948
X7.2548Y-4.9498
X7.2703Y-2.5984
X7.2703Y-3.3461
X7.2703Y-4.0948
X7.6183Y-2.4948
X7.6183Y-3.2448
X7.6183Y-3.9948
X7.6412Y-4.8463
X8.0183Y-2.4948
X8.0183Y-3.2448
X8.0183Y-3.9948
X8.3665Y-2.3173
X8.3665Y-3.0661
X8.3665Y-3.8148
X8.7665Y-2.3173
X8.7665Y-3.0661
X8.7665Y-3.8148
X9.1155Y-2.5591
X9.1155Y-3.3061
X9.1155Y-4.0548
X9.5155Y-2.5591
X9.5155Y-3.3061
X9.5155Y-4.0548
X9.8642Y-3.0315
X9.8642Y-3.7795
X9.8642Y-4.5276
X10.2642Y-3.0315
X10.2642Y-3.7795
X10.2642Y-4.5276
T5
X1.5551Y-3.0315
X1.5551Y-3.7795
X1.5551Y-4.5276
X1.9882Y-3.0315
X1.9882Y-3.7795
X1.9882Y-4.5276
X2.3031Y-2.5591
X2.3031Y-3.31
X2.3035Y-4.06
X2.7362Y-2.5591
X2.7362Y-3.31
X2.7365Y-4.06
X3.0512Y-2.3173
X3.0512Y-3.0661
X3.0512Y-3.8148
X3.4843Y-2.3173
X3.4843Y-3.0661
X3.4843Y-3.8148
X3.799Y-2.4973
X3.7992Y-3.2461
X3.7992Y-3.9948
X4.1716Y-4.8372
X4.232Y-2.4973
X4.2323Y-3.2461
X4.2323Y-3.9948
X4.5465Y-3.3461
X4.5465Y-4.0948
X4.5472Y-2.5984
X4.5899Y-4.9493
X4.968Y-5.1084
X4.9795Y-3.3461
X4.9795Y-4.0948
X4.9803Y-2.5984
X5.343Y-5.325
X6.4759Y-5.3265
X6.851Y-5.1099
X6.8538Y-2.5984
X6.8538Y-3.3461
X6.8538Y-4.0948
X7.2389Y-4.9541
X7.2868Y-2.5984
X7.2868Y-3.3461
X7.2868Y-4.0948
X7.6018Y-2.4948
X7.6018Y-3.2448
X7.6018Y-3.9948
X7.6572Y-4.842
X8.0349Y-2.4948
X8.0349Y-3.2448
X8.0349Y-3.9948
X8.3499Y-2.3173
X8.3499Y-3.0661
X8.3499Y-3.8148
X8.783Y-2.3173
X8.783Y-3.0661
X8.783Y-3.8148
X9.099Y-2.5591
X9.099Y-3.3061
X9.099Y-4.0548
X9.532Y-2.5591
X9.532Y-3.3061
X9.532Y-4.0548
X9.8477Y-3.0315
X9.8477Y-3.7795
X9.8477Y-4.5276
X10.2808Y-3.0315
X10.2808Y-3.7795
X10.2808Y-4.5276
T6
X1.7717Y-3.0315
X1.7717Y-3.7795
X1.7717Y-4.5276
X2.5197Y-2.5591
X2.5197Y-3.31
X2.52Y-4.06
X3.2677Y-2.3173
X3.2677Y-3.0661
X3.2677Y-3.8148
X4.0155Y-2.4973
X4.0157Y-3.2461
X4.0157Y-3.9948
X4.3808Y-4.8932
X4.763Y-3.3461
X4.763Y-4.0948
X4.7638Y-2.5984
X5.1555Y-5.2167
X6.6634Y-5.2182
X7.0703Y-2.5984
X7.0703Y-3.3461
X7.0703Y-4.0948
X7.448Y-4.898
X7.8183Y-2.4948
X7.8183Y-3.2448
X7.8183Y-3.9948
X8.5665Y-2.3173
X8.5665Y-3.0661
X8.5665Y-3.8148
X9.3155Y-2.5591
X9.3155Y-3.3061
X9.3155Y-4.0548
X10.0642Y-3.0315
X10.0642Y-3.7795
X10.0642Y-4.5276
T0
M30
