G04 #@! TF.GenerationSoftware,KiCad,Pcbnew,6.0.5*
G04 #@! TF.CreationDate,2022-08-03T13:04:35-04:00*
G04 #@! TF.ProjectId,sweep-high,73776565-702d-4686-9967-682e6b696361,rev?*
G04 #@! TF.SameCoordinates,Original*
G04 #@! TF.FileFunction,Profile,NP*
%FSLAX46Y46*%
G04 Gerber Fmt 4.6, Leading zero omitted, Abs format (unit mm)*
G04 Created by KiCad (PCBNEW 6.0.5) date 2022-08-03 13:04:35*
%MOMM*%
%LPD*%
G01*
G04 APERTURE LIST*
G04 #@! TA.AperFunction,Profile*
%ADD10C,0.050000*%
G04 #@! TD*
G04 APERTURE END LIST*
D10*
X227807159Y-54783143D02*
X227807159Y-48484685D01*
X207248597Y-53339999D02*
X207248597Y-48398082D01*
X227807159Y-48484685D02*
X207248597Y-48398082D01*
X264910345Y-66947674D02*
X247011045Y-66947674D01*
X188311645Y-56018082D02*
X169888045Y-56018082D01*
X207248597Y-53339999D02*
X188311645Y-53339999D01*
X247011045Y-54783143D02*
X247011045Y-66947674D01*
X188311645Y-56018082D02*
X188311645Y-53339999D01*
X247011045Y-54783143D02*
X227807159Y-54783143D01*
X93102448Y-48260000D02*
X72543886Y-48346603D01*
X93102448Y-48260000D02*
X93102448Y-53201917D01*
X112039400Y-53201917D02*
X112039400Y-55880000D01*
X72543886Y-48346603D02*
X72543886Y-54645061D01*
X53340000Y-66809592D02*
X53340000Y-54645061D01*
X53340000Y-66809592D02*
X35440700Y-66809592D01*
X72543886Y-54645061D02*
X53340000Y-54645061D01*
X112039400Y-53201917D02*
X93102448Y-53201917D01*
X130463000Y-55880000D02*
X130463000Y-58420000D01*
X130463000Y-55880000D02*
X112039400Y-55880000D01*
X148912000Y-82616000D02*
G75*
G03*
X148162000Y-81866000I-750000J0D01*
G01*
X148912000Y-93218000D02*
X148912000Y-101262000D01*
X131458000Y-81868917D02*
X148162000Y-81866000D01*
X147161679Y-123613657D02*
X135710000Y-143699265D01*
X147161678Y-123613657D02*
G75*
G03*
X148924000Y-116248000I-15055878J7495957D01*
G01*
X148912000Y-82616000D02*
X148924000Y-88110000D01*
X149288500Y-88110000D02*
X148924000Y-88110000D01*
X149288500Y-93218000D02*
X148912000Y-93218000D01*
X149288500Y-108628000D02*
X148924000Y-108628000D01*
X149288500Y-113728500D02*
X148912000Y-113728500D01*
X148912000Y-101262000D02*
X148924000Y-108628000D01*
X148912000Y-113728500D02*
X148924000Y-116248000D01*
X130457983Y-80868917D02*
G75*
G03*
X131458000Y-81868917I1000017J17D01*
G01*
X130458000Y-80868917D02*
X130463000Y-58420000D01*
X37768000Y-124474571D02*
X37493002Y-124473917D01*
X132978000Y-144298000D02*
G75*
G03*
X107797707Y-133384137I-46730000J-73310000D01*
G01*
X107797707Y-133384137D02*
G75*
G03*
X37768000Y-124474571I-70309647J-272964333D01*
G01*
X35458002Y-122542999D02*
G75*
G03*
X37493002Y-124473917I1999998J69999D01*
G01*
X132978000Y-144298000D02*
G75*
G03*
X135710000Y-143699265I1070000J1650000D01*
G01*
X35440700Y-66809592D02*
X35458001Y-122542999D01*
X168999840Y-81868917D02*
X152295840Y-81866000D01*
X151545840Y-113728500D02*
X151533840Y-116248000D01*
X153280536Y-123572150D02*
X164747840Y-143699265D01*
X264910345Y-66947674D02*
X264999839Y-122542999D01*
X151545840Y-101262000D02*
X151533840Y-108628000D01*
X152295840Y-81866040D02*
G75*
G03*
X151545840Y-82616000I-40J-749960D01*
G01*
X151545840Y-93218000D02*
X151545840Y-101262000D01*
X192659667Y-133382324D02*
G75*
G03*
X167479840Y-144298000I21570333J-84257276D01*
G01*
X262689840Y-124474581D02*
G75*
G03*
X192659669Y-133382330I279960J-281933419D01*
G01*
X164747794Y-143699294D02*
G75*
G03*
X167479840Y-144298000I1662006J1051294D01*
G01*
X151533862Y-116248000D02*
G75*
G03*
X153280536Y-123572150I16773838J129900D01*
G01*
X151545840Y-82616000D02*
X151533840Y-88110000D01*
X168999840Y-81868940D02*
G75*
G03*
X169999840Y-80868917I-40J1000040D01*
G01*
X169999840Y-80868917D02*
X169888045Y-56018082D01*
X262689840Y-124474571D02*
X262964838Y-124473917D01*
X262964837Y-124473959D02*
G75*
G03*
X264999839Y-122542999I34963J2000959D01*
G01*
X151533840Y-88110000D02*
X151193500Y-88110000D01*
X151545840Y-93218000D02*
X151193500Y-93218000D01*
X151193499Y-113728501D02*
G75*
G03*
X149288501Y-113728500I-952499J-380999D01*
G01*
X151533840Y-108628000D02*
X151193500Y-108628000D01*
X151193499Y-93218001D02*
G75*
G03*
X149288501Y-93218000I-952499J-380999D01*
G01*
X151545840Y-113728500D02*
X151193500Y-113728500D01*
X149288501Y-108627999D02*
G75*
G03*
X151193499Y-108628000I952499J360499D01*
G01*
X149288500Y-88109999D02*
G75*
G03*
X151193499Y-88110000I952500J352999D01*
G01*
M02*
