G04 #@! TF.GenerationSoftware,KiCad,Pcbnew,6.0.5*
G04 #@! TF.CreationDate,2022-08-03T13:04:35-04:00*
G04 #@! TF.ProjectId,sweep-high,73776565-702d-4686-9967-682e6b696361,rev?*
G04 #@! TF.SameCoordinates,Original*
G04 #@! TF.FileFunction,Soldermask,Top*
G04 #@! TF.FilePolarity,Negative*
%FSLAX46Y46*%
G04 Gerber Fmt 4.6, Leading zero omitted, Abs format (unit mm)*
G04 Created by KiCad (PCBNEW 6.0.5) date 2022-08-03 13:04:35*
%MOMM*%
%LPD*%
G01*
G04 APERTURE LIST*
%ADD10C,1.397000*%
%ADD11C,4.400000*%
%ADD12R,0.900000X0.900000*%
%ADD13R,0.900000X1.250000*%
%ADD14R,0.900000X1.700000*%
%ADD15C,0.800000*%
%ADD16O,2.000000X1.600000*%
%ADD17C,0.500000*%
%ADD18C,1.000000*%
G04 APERTURE END LIST*
D10*
X146190005Y-83736002D03*
X134760005Y-83736002D03*
D11*
X92202000Y-94234000D03*
X92202000Y-56134000D03*
X111252000Y-75184000D03*
X73152000Y-75184000D03*
D12*
X136902000Y-82890000D03*
X136902000Y-85090000D03*
X144302000Y-85090000D03*
X144302000Y-82890000D03*
D13*
X142852000Y-86065000D03*
X139852000Y-86065000D03*
X138352000Y-86065000D03*
D14*
X125694000Y-116502000D03*
X129094000Y-116502000D03*
D10*
X166459840Y-83482002D03*
D14*
X170347840Y-116756000D03*
X173747840Y-116756000D03*
D10*
X155029840Y-83482002D03*
D11*
X208269840Y-56261000D03*
X189219840Y-75311000D03*
X208269840Y-94361000D03*
X227319840Y-75311000D03*
D12*
X164571840Y-85598000D03*
X164571840Y-83398000D03*
X157171840Y-83398000D03*
X157171840Y-85598000D03*
D13*
X163121840Y-86573000D03*
X160121840Y-86573000D03*
X158621840Y-86573000D03*
D15*
X155867840Y-118734000D03*
X162867840Y-118734000D03*
D16*
X160467840Y-116434000D03*
X160487840Y-121064000D03*
X157487840Y-121064000D03*
X157467840Y-116434000D03*
X165567840Y-121034000D03*
X165587840Y-116464000D03*
X164467840Y-116434000D03*
X164487840Y-121064000D03*
D17*
X151257000Y-92710000D03*
X149225000Y-88646000D03*
X149225000Y-91694000D03*
X149225000Y-90678000D03*
X151257000Y-91694000D03*
X151257000Y-90678000D03*
X151257000Y-89662000D03*
X149225000Y-92710000D03*
X151257000Y-88646000D03*
X149225000Y-89662000D03*
X149225000Y-109156500D03*
X151257000Y-112204500D03*
X151257000Y-110172500D03*
X151257000Y-109156500D03*
X149225000Y-110172500D03*
X151257000Y-111188500D03*
X149225000Y-113220500D03*
X151257000Y-113220500D03*
X149225000Y-111188500D03*
X149225000Y-112204500D03*
D15*
X137590000Y-118734000D03*
X144590000Y-118734000D03*
D16*
X139990000Y-121034000D03*
X139970000Y-116404000D03*
X142990000Y-121034000D03*
X142970000Y-116404000D03*
X134870000Y-121004000D03*
X134890000Y-116434000D03*
X135970000Y-116404000D03*
X135990000Y-121034000D03*
D18*
X142102000Y-83990000D03*
X139102000Y-83990000D03*
X159371840Y-84498000D03*
X162371840Y-84498000D03*
M02*
