M48
; DRILL file {KiCad 6.0.5} date Wed 03 Aug 2022 01:04:30 PM EDT
; FORMAT={-:-/ absolute / inch / decimal}
; #@! TF.CreationDate,2022-08-03T13:04:30-04:00
; #@! TF.GenerationSoftware,Kicad,Pcbnew,6.0.5
; #@! TF.FileFunction,Plated,1,2,PTH
FMAT,2
INCH
; #@! TA.AperFunction,Plated,PTH,ViaDrill
T1C0.0157
; #@! TA.AperFunction,Plated,PTH,ComponentDrill
T2C0.0197
; #@! TA.AperFunction,Plated,PTH,ComponentDrill
T3C0.0320
; #@! TA.AperFunction,Plated,PTH,ComponentDrill
T4C0.0354
; #@! TA.AperFunction,Plated,PTH,ComponentDrill
T5C0.0551
; #@! TA.AperFunction,Plated,PTH,ComponentDrill
T6C0.0866
%
G90
G05
T1
X3.92Y-3.37
X5.1155Y-4.5867
X5.38Y-4.065
X5.4469Y-3.4453
X5.45Y-4.23
X5.506Y-3.4462
X6.3Y-3.515
X6.3035Y-3.4667
X6.5635Y-4.1267
X6.8405Y-4.5198
T3
X5.216Y-3.3767
X5.216Y-3.4767
X5.216Y-3.5767
X5.216Y-3.6767
X5.216Y-3.7767
X5.216Y-3.8767
X5.216Y-3.9767
X5.216Y-4.0767
X5.216Y-4.1767
X5.216Y-4.2767
X5.216Y-4.3767
X5.216Y-4.4767
X5.3055Y-3.2967
X5.7555Y-3.2967
X5.8152Y-3.3767
X5.8152Y-3.4767
X5.8152Y-3.5767
X5.8152Y-3.6767
X5.8152Y-3.7767
X5.8152Y-3.8767
X5.8152Y-3.9767
X5.8152Y-4.0767
X5.8152Y-4.1767
X5.8152Y-4.2767
X5.8152Y-4.3767
X5.8152Y-4.4767
X6.02Y-3.3767
X6.02Y-3.4767
X6.02Y-3.5767
X6.02Y-3.6767
X6.02Y-3.7767
X6.02Y-3.8767
X6.02Y-3.9767
X6.02Y-4.0767
X6.02Y-4.1767
X6.02Y-4.2767
X6.02Y-4.3767
X6.02Y-4.4767
X6.1035Y-3.2867
X6.5535Y-3.2867
X6.6193Y-3.3767
X6.6193Y-3.4767
X6.6193Y-3.5767
X6.6193Y-3.6767
X6.6193Y-3.7767
X6.6193Y-3.8767
X6.6193Y-3.9767
X6.6193Y-4.0767
X6.6193Y-4.1767
X6.6193Y-4.2767
X6.6193Y-4.3767
X6.6193Y-4.4767
T5
X1.622Y-2.9311
X1.622Y-3.6791
X1.622Y-4.4272
X1.6732Y-2.874
X1.6732Y-3.622
X1.6732Y-4.3701
X2.3701Y-2.4587
X2.3701Y-3.2096
X2.3704Y-3.9596
X2.4213Y-2.4016
X2.4213Y-3.1525
X2.4216Y-3.9025
X3.1181Y-2.2169
X3.1181Y-2.9657
X3.1181Y-3.7144
X3.1693Y-2.1598
X3.1693Y-2.9086
X3.1693Y-3.6573
X3.8659Y-2.3969
X3.8661Y-3.1457
X3.8661Y-3.8944
X3.9171Y-2.3398
X3.9173Y-3.0886
X3.9173Y-3.8373
X4.2623Y-4.7575
X4.3265Y-4.7156
X4.6134Y-3.2457
X4.6134Y-3.9944
X4.6142Y-2.498
X4.6646Y-3.1886
X4.6646Y-3.9373
X4.6654Y-2.4409
X5.0761Y-5.0549
X5.149Y-5.0311
X6.4837Y-5.206
X6.4994Y-5.131
X6.9207Y-2.498
X6.9207Y-3.2457
X6.9207Y-3.9944
X6.9719Y-2.4409
X6.9719Y-3.1886
X6.9719Y-3.9373
X7.2775Y-4.8398
X7.3122Y-4.7714
X7.6687Y-2.3944
X7.6687Y-3.1444
X7.6687Y-3.8944
X7.7199Y-2.3373
X7.7199Y-3.0873
X7.7199Y-3.8373
X8.4168Y-2.2169
X8.4168Y-2.9657
X8.4168Y-3.7144
X8.468Y-2.1598
X8.468Y-2.9086
X8.468Y-3.6573
X9.1659Y-2.4587
X9.1659Y-3.2057
X9.1659Y-3.9544
X9.2171Y-2.4016
X9.2171Y-3.1486
X9.2171Y-3.8973
X9.9146Y-2.9311
X9.9146Y-3.6791
X9.9146Y-4.4272
X9.9658Y-2.874
X9.9658Y-3.622
X9.9658Y-4.3701
T6
X2.88Y-2.96
X3.63Y-2.21
X3.63Y-3.71
X4.38Y-2.96
X7.4496Y-2.965
X8.1996Y-2.215
X8.1996Y-3.715
X8.9496Y-2.965
T2
G00X1.561Y-3.185
M15
G01X1.5807Y-3.185
M16
G05
G00X1.561Y-3.9331
M15
G01X1.5807Y-3.9331
M16
G05
G00X1.561Y-4.6811
M15
G01X1.5807Y-4.6811
M16
G05
G00X1.7618Y-3.2638
M15
G01X1.7815Y-3.2638
M16
G05
G00X1.7618Y-4.0118
M15
G01X1.7815Y-4.0118
M16
G05
G00X1.7618Y-4.7598
M15
G01X1.7815Y-4.7598
M16
G05
G00X1.9587Y-2.8131
M15
G01X1.9783Y-2.8129
M16
G05
G00X1.9587Y-3.5611
M15
G01X1.9783Y-3.5609
M16
G05
G00X1.9587Y-4.3091
M15
G01X1.9783Y-4.309
M16
G05
G00X2.3091Y-2.7126
M15
G01X2.3287Y-2.7126
M16
G05
G00X2.3091Y-3.4635
M15
G01X2.3287Y-3.4635
M16
G05
G00X2.3094Y-4.2135
M15
G01X2.3291Y-4.2135
M16
G05
G00X2.5098Y-2.7913
M15
G01X2.5295Y-2.7913
M16
G05
G00X2.5098Y-3.5423
M15
G01X2.5295Y-3.5423
M16
G05
G00X2.5102Y-4.2923
M15
G01X2.5298Y-4.2923
M16
G05
G00X2.7067Y-2.3406
M15
G01X2.7264Y-2.3405
M16
G05
G00X2.7067Y-3.0916
M15
G01X2.7264Y-3.0914
M16
G05
G00X2.707Y-3.8416
M15
G01X2.7267Y-3.8414
M16
G05
G00X3.0571Y-2.4709
M15
G01X3.0768Y-2.4709
M16
G05
G00X3.0571Y-3.2196
M15
G01X3.0768Y-3.2196
M16
G05
G00X3.0571Y-3.9683
M15
G01X3.0768Y-3.9683
M16
G05
G00X3.2579Y-2.5496
M15
G01X3.2776Y-2.5496
M16
G05
G00X3.2579Y-3.2983
M15
G01X3.2776Y-3.2983
M16
G05
G00X3.2579Y-4.0471
M15
G01X3.2776Y-4.0471
M16
G05
G00X3.4547Y-2.0989
M15
G01X3.4744Y-2.0987
M16
G05
G00X3.4547Y-2.8476
M15
G01X3.4744Y-2.8475
M16
G05
G00X3.4547Y-3.5964
M15
G01X3.4744Y-3.5962
M16
G05
G00X3.8049Y-2.6509
M15
G01X3.8246Y-2.6509
M16
G05
G00X3.8051Y-3.3996
M15
G01X3.8248Y-3.3996
M16
G05
G00X3.8051Y-4.1483
M15
G01X3.8248Y-4.1483
M16
G05
G00X4.0057Y-2.7296
M15
G01X4.0254Y-2.7296
M16
G05
G00X4.0059Y-3.4783
M15
G01X4.0256Y-3.4783
M16
G05
G00X4.0059Y-4.2271
M15
G01X4.0256Y-4.2271
M16
G05
G00X4.1376Y-4.987
M15
G01X4.1566Y-4.9921
M16
G05
G00X4.2025Y-2.2789
M15
G01X4.2222Y-2.2787
M16
G05
G00X4.2028Y-3.0276
M15
G01X4.2224Y-3.0275
M16
G05
G00X4.2028Y-3.7764
M15
G01X4.2224Y-3.7762
M16
G05
G00X4.3112Y-5.115
M15
G01X4.3302Y-5.1201
M16
G05
G00X4.5524Y-3.4996
M15
G01X4.572Y-3.4996
M16
G05
G00X4.5524Y-4.2483
M15
G01X4.572Y-4.2483
M16
G05
G00X4.5531Y-2.752
M15
G01X4.5728Y-2.752
M16
G05
G00X4.618Y-4.7307
M15
G01X4.637Y-4.7356
M16
G05
G00X4.7531Y-3.5783
M15
G01X4.7728Y-3.5783
M16
G05
G00X4.7531Y-4.3271
M15
G01X4.7728Y-4.3271
M16
G05
G00X4.7539Y-2.8307
M15
G01X4.7736Y-2.8307
M16
G05
G00X4.8963Y-5.2444
M15
G01X4.9134Y-5.2542
M16
G05
G00X4.95Y-3.1276
M15
G01X4.9697Y-3.1275
M16
G05
G00X4.95Y-3.8764
M15
G01X4.9697Y-3.8762
M16
G05
G00X4.9508Y-2.38
M15
G01X4.9705Y-2.3798
M16
G05
G00X5.0308Y-5.4129
M15
G01X5.0479Y-5.4228
M16
G05
G00X5.4267Y-5.121
M15
G01X5.4438Y-5.1307
M16
G05
G00X6.5578Y-5.4565
M15
G01X6.5748Y-5.4466
M16
G05
G00X6.7162Y-4.9355
M15
G01X6.7331Y-4.9255
M16
G05
G00X6.771Y-5.4243
M15
G01X6.7881Y-5.4144
M16
G05
G00X6.8597Y-2.752
M15
G01X6.8794Y-2.752
M16
G05
G00X6.8597Y-3.4996
M15
G01X6.8794Y-3.4996
M16
G05
G00X6.8597Y-4.2483
M15
G01X6.8794Y-4.2483
M16
G05
G00X7.0605Y-2.8307
M15
G01X7.0802Y-2.8307
M16
G05
G00X7.0605Y-3.5783
M15
G01X7.0802Y-3.5783
M16
G05
G00X7.0605Y-4.3271
M15
G01X7.0802Y-4.3271
M16
G05
G00X7.2573Y-2.38
M15
G01X7.277Y-2.3798
M16
G05
G00X7.2573Y-3.1276
M15
G01X7.277Y-3.1275
M16
G05
G00X7.2573Y-3.8764
M15
G01X7.277Y-3.8762
M16
G05
G00X7.2843Y-5.1009
M15
G01X7.3033Y-5.0958
M16
G05
G00X7.4986Y-5.1249
M15
G01X7.5177Y-5.1199
M16
G05
G00X7.5721Y-4.6387
M15
G01X7.5911Y-4.6334
M16
G05
G00X7.6077Y-2.6483
M15
G01X7.6274Y-2.6483
M16
G05
G00X7.6077Y-3.3983
M15
G01X7.6274Y-3.3983
M16
G05
G00X7.6077Y-4.1483
M15
G01X7.6274Y-4.1483
M16
G05
G00X7.8085Y-2.7271
M15
G01X7.8282Y-2.7271
M16
G05
G00X7.8085Y-3.4771
M15
G01X7.8282Y-3.4771
M16
G05
G00X7.8085Y-4.2271
M15
G01X7.8282Y-4.2271
M16
G05
G00X8.0053Y-2.2764
M15
G01X8.025Y-2.2762
M16
G05
G00X8.0053Y-3.0264
M15
G01X8.025Y-3.0262
M16
G05
G00X8.0053Y-3.7764
M15
G01X8.025Y-3.7762
M16
G05
G00X8.3558Y-2.4709
M15
G01X8.3755Y-2.4709
M16
G05
G00X8.3558Y-3.2196
M15
G01X8.3755Y-3.2196
M16
G05
G00X8.3558Y-3.9683
M15
G01X8.3755Y-3.9683
M16
G05
G00X8.5566Y-2.5496
M15
G01X8.5763Y-2.5496
M16
G05
G00X8.5566Y-3.2983
M15
G01X8.5763Y-3.2983
M16
G05
G00X8.5566Y-4.0471
M15
G01X8.5763Y-4.0471
M16
G05
G00X8.7535Y-2.0989
M15
G01X8.7731Y-2.0987
M16
G05
G00X8.7535Y-2.8476
M15
G01X8.7731Y-2.8475
M16
G05
G00X8.7535Y-3.5964
M15
G01X8.7731Y-3.5962
M16
G05
G00X9.1049Y-2.7126
M15
G01X9.1246Y-2.7126
M16
G05
G00X9.1049Y-3.4596
M15
G01X9.1246Y-3.4596
M16
G05
G00X9.1049Y-4.2083
M15
G01X9.1246Y-4.2083
M16
G05
G00X9.3057Y-2.7913
M15
G01X9.3253Y-2.7913
M16
G05
G00X9.3057Y-3.5383
M15
G01X9.3253Y-3.5383
M16
G05
G00X9.3057Y-4.2871
M15
G01X9.3253Y-4.2871
M16
G05
G00X9.5025Y-2.3406
M15
G01X9.5222Y-2.3405
M16
G05
G00X9.5025Y-3.0876
M15
G01X9.5222Y-3.0875
M16
G05
G00X9.5025Y-3.8364
M15
G01X9.5222Y-3.8362
M16
G05
G00X9.8536Y-3.185
M15
G01X9.8733Y-3.185
M16
G05
G00X9.8536Y-3.9331
M15
G01X9.8733Y-3.9331
M16
G05
G00X9.8536Y-4.6811
M15
G01X9.8733Y-4.6811
M16
G05
G00X10.0544Y-3.2638
M15
G01X10.0741Y-3.2638
M16
G05
G00X10.0544Y-4.0118
M15
G01X10.0741Y-4.0118
M16
G05
G00X10.0544Y-4.7598
M15
G01X10.0741Y-4.7598
M16
G05
G00X10.2513Y-2.8131
M15
G01X10.2709Y-2.8129
M16
G05
G00X10.2513Y-3.5611
M15
G01X10.2709Y-3.5609
M16
G05
G00X10.2513Y-4.3091
M15
G01X10.2709Y-4.309
M16
G05
T4
G00X5.302Y-4.7639
M15
G01X5.3177Y-4.7639
M16
G05
G00X5.3185Y-4.584
M15
G01X5.3028Y-4.584
M16
G05
G00X5.3453Y-4.5828
M15
G01X5.361Y-4.5828
M16
G05
G00X5.3618Y-4.7651
M15
G01X5.3461Y-4.7651
M16
G05
G00X5.5028Y-4.5828
M15
G01X5.5185Y-4.5828
M16
G05
G00X5.5193Y-4.7651
M15
G01X5.5035Y-4.7651
M16
G05
G00X5.6209Y-4.5828
M15
G01X5.6366Y-4.5828
M16
G05
G00X5.6374Y-4.7651
M15
G01X5.6217Y-4.7651
M16
G05
G00X6.1916Y-4.584
M15
G01X6.2074Y-4.584
M16
G05
G00X6.2082Y-4.7663
M15
G01X6.1924Y-4.7663
M16
G05
G00X6.3098Y-4.584
M15
G01X6.3255Y-4.584
M16
G05
G00X6.3263Y-4.7663
M15
G01X6.3105Y-4.7663
M16
G05
G00X6.4672Y-4.584
M15
G01X6.483Y-4.584
M16
G05
G00X6.4838Y-4.7663
M15
G01X6.468Y-4.7663
M16
G05
G00X6.5105Y-4.7651
M15
G01X6.5263Y-4.7651
M16
G05
G00X6.5271Y-4.5852
M15
G01X6.5113Y-4.5852
M16
G05
T5
G00X1.8701Y-2.8317
M15
G01X1.8701Y-2.8533
M16
G05
G00X1.8701Y-3.5797
M15
G01X1.8701Y-3.6014
M16
G05
G00X1.8701Y-4.3278
M15
G01X1.8701Y-4.3494
M16
G05
G00X2.6181Y-2.3593
M15
G01X2.6181Y-2.3809
M16
G05
G00X2.6181Y-3.1102
M15
G01X2.6181Y-3.1319
M16
G05
G00X2.6184Y-3.8602
M15
G01X2.6184Y-3.8819
M16
G05
G00X3.3661Y-2.1175
M15
G01X3.3661Y-2.1392
M16
G05
G00X3.3661Y-2.8663
M15
G01X3.3661Y-2.8879
M16
G05
G00X3.3661Y-3.615
M15
G01X3.3661Y-3.6367
M16
G05
G00X4.1139Y-2.2975
M15
G01X4.1139Y-2.3192
M16
G05
G00X4.1142Y-3.0463
M15
G01X4.1142Y-3.0679
M16
G05
G00X4.1142Y-3.795
M15
G01X4.1142Y-3.8167
M16
G05
G00X4.5276Y-4.7257
M15
G01X4.522Y-4.7466
M16
G05
G00X4.8614Y-3.1463
M15
G01X4.8614Y-3.1679
M16
G05
G00X4.8614Y-3.895
M15
G01X4.8614Y-3.9167
M16
G05
G00X4.8622Y-2.3986
M15
G01X4.8622Y-2.4203
M16
G05
G00X5.3407Y-5.0929
M15
G01X5.3298Y-5.1116
M16
G05
G00X6.6488Y-4.9959
M15
G01X6.6596Y-5.0147
M16
G05
G00X7.1687Y-2.3986
M15
G01X7.1687Y-2.4203
M16
G05
G00X7.1687Y-3.1463
M15
G01X7.1687Y-3.1679
M16
G05
G00X7.1687Y-3.895
M15
G01X7.1687Y-3.9167
M16
G05
G00X7.4914Y-4.6796
M15
G01X7.497Y-4.7005
M16
G05
G00X7.9168Y-2.295
M15
G01X7.9168Y-2.3167
M16
G05
G00X7.9168Y-3.045
M15
G01X7.9168Y-3.0667
M16
G05
G00X7.9168Y-3.795
M15
G01X7.9168Y-3.8167
M16
G05
G00X8.6649Y-2.1175
M15
G01X8.6649Y-2.1392
M16
G05
G00X8.6649Y-2.8663
M15
G01X8.6649Y-2.8879
M16
G05
G00X8.6649Y-3.615
M15
G01X8.6649Y-3.6367
M16
G05
G00X9.4139Y-2.3593
M15
G01X9.4139Y-2.3809
M16
G05
G00X9.4139Y-3.1063
M15
G01X9.4139Y-3.1279
M16
G05
G00X9.4139Y-3.855
M15
G01X9.4139Y-3.8767
M16
G05
G00X10.1627Y-2.8317
M15
G01X10.1627Y-2.8533
M16
G05
G00X10.1627Y-3.5797
M15
G01X10.1627Y-3.6014
M16
G05
G00X10.1627Y-4.3278
M15
G01X10.1627Y-4.3494
M16
G05
T0
M30
