G04 #@! TF.GenerationSoftware,KiCad,Pcbnew,6.0.5*
G04 #@! TF.CreationDate,2022-08-03T13:04:35-04:00*
G04 #@! TF.ProjectId,sweep-high,73776565-702d-4686-9967-682e6b696361,rev?*
G04 #@! TF.SameCoordinates,Original*
G04 #@! TF.FileFunction,Legend,Top*
G04 #@! TF.FilePolarity,Positive*
%FSLAX46Y46*%
G04 Gerber Fmt 4.6, Leading zero omitted, Abs format (unit mm)*
G04 Created by KiCad (PCBNEW 6.0.5) date 2022-08-03 13:04:35*
%MOMM*%
%LPD*%
G01*
G04 APERTURE LIST*
%ADD10C,0.300000*%
%ADD11C,0.150000*%
%ADD12C,0.100000*%
%ADD13C,0.125000*%
%ADD14C,0.120000*%
%ADD15C,0.200000*%
%ADD16C,0.010000*%
%ADD17C,1.397000*%
%ADD18C,1.524000*%
%ADD19C,4.400000*%
%ADD20R,0.900000X0.900000*%
%ADD21R,0.900000X1.250000*%
%ADD22R,0.900000X1.700000*%
%ADD23C,0.800000*%
%ADD24O,2.000000X1.600000*%
%ADD25C,0.500000*%
%ADD26C,1.000000*%
G04 APERTURE END LIST*
D10*
X160002697Y-104372857D02*
X160002697Y-104872857D01*
X160788411Y-104872857D02*
X159288411Y-104872857D01*
X159288411Y-104158571D01*
X160788411Y-102944285D02*
X160002697Y-102944285D01*
X159859840Y-103015714D01*
X159788411Y-103158571D01*
X159788411Y-103444285D01*
X159859840Y-103587142D01*
X160716982Y-102944285D02*
X160788411Y-103087142D01*
X160788411Y-103444285D01*
X160716982Y-103587142D01*
X160574125Y-103658571D01*
X160431268Y-103658571D01*
X160288411Y-103587142D01*
X160216982Y-103444285D01*
X160216982Y-103087142D01*
X160145554Y-102944285D01*
X160716982Y-101587142D02*
X160788411Y-101730000D01*
X160788411Y-102015714D01*
X160716982Y-102158571D01*
X160645554Y-102230000D01*
X160502697Y-102301428D01*
X160074125Y-102301428D01*
X159931268Y-102230000D01*
X159859840Y-102158571D01*
X159788411Y-102015714D01*
X159788411Y-101730000D01*
X159859840Y-101587142D01*
X160716982Y-100372857D02*
X160788411Y-100515714D01*
X160788411Y-100801428D01*
X160716982Y-100944285D01*
X160574125Y-101015714D01*
X160002697Y-101015714D01*
X159859840Y-100944285D01*
X159788411Y-100801428D01*
X159788411Y-100515714D01*
X159859840Y-100372857D01*
X160002697Y-100301428D01*
X160145554Y-100301428D01*
X160288411Y-101015714D01*
X160788411Y-97872857D02*
X159288411Y-97872857D01*
X160716982Y-97872857D02*
X160788411Y-98015714D01*
X160788411Y-98301428D01*
X160716982Y-98444285D01*
X160645554Y-98515714D01*
X160502697Y-98587142D01*
X160074125Y-98587142D01*
X159931268Y-98515714D01*
X159859840Y-98444285D01*
X159788411Y-98301428D01*
X159788411Y-98015714D01*
X159859840Y-97872857D01*
X160788411Y-96944285D02*
X160716982Y-97087142D01*
X160645554Y-97158571D01*
X160502697Y-97230000D01*
X160074125Y-97230000D01*
X159931268Y-97158571D01*
X159859840Y-97087142D01*
X159788411Y-96944285D01*
X159788411Y-96730000D01*
X159859840Y-96587142D01*
X159931268Y-96515714D01*
X160074125Y-96444285D01*
X160502697Y-96444285D01*
X160645554Y-96515714D01*
X160716982Y-96587142D01*
X160788411Y-96730000D01*
X160788411Y-96944285D01*
X159788411Y-95944285D02*
X160788411Y-95658571D01*
X160074125Y-95372857D01*
X160788411Y-95087142D01*
X159788411Y-94801428D01*
X159788411Y-94230000D02*
X160788411Y-94230000D01*
X159931268Y-94230000D02*
X159859840Y-94158571D01*
X159788411Y-94015714D01*
X159788411Y-93801428D01*
X159859840Y-93658571D01*
X160002697Y-93587142D01*
X160788411Y-93587142D01*
X139592857Y-104202857D02*
X139592857Y-104702857D01*
X140378571Y-104702857D02*
X138878571Y-104702857D01*
X138878571Y-103988571D01*
X140378571Y-102774285D02*
X139592857Y-102774285D01*
X139450000Y-102845714D01*
X139378571Y-102988571D01*
X139378571Y-103274285D01*
X139450000Y-103417142D01*
X140307142Y-102774285D02*
X140378571Y-102917142D01*
X140378571Y-103274285D01*
X140307142Y-103417142D01*
X140164285Y-103488571D01*
X140021428Y-103488571D01*
X139878571Y-103417142D01*
X139807142Y-103274285D01*
X139807142Y-102917142D01*
X139735714Y-102774285D01*
X140307142Y-101417142D02*
X140378571Y-101560000D01*
X140378571Y-101845714D01*
X140307142Y-101988571D01*
X140235714Y-102060000D01*
X140092857Y-102131428D01*
X139664285Y-102131428D01*
X139521428Y-102060000D01*
X139450000Y-101988571D01*
X139378571Y-101845714D01*
X139378571Y-101560000D01*
X139450000Y-101417142D01*
X140307142Y-100202857D02*
X140378571Y-100345714D01*
X140378571Y-100631428D01*
X140307142Y-100774285D01*
X140164285Y-100845714D01*
X139592857Y-100845714D01*
X139450000Y-100774285D01*
X139378571Y-100631428D01*
X139378571Y-100345714D01*
X139450000Y-100202857D01*
X139592857Y-100131428D01*
X139735714Y-100131428D01*
X139878571Y-100845714D01*
X140378571Y-97702857D02*
X138878571Y-97702857D01*
X140307142Y-97702857D02*
X140378571Y-97845714D01*
X140378571Y-98131428D01*
X140307142Y-98274285D01*
X140235714Y-98345714D01*
X140092857Y-98417142D01*
X139664285Y-98417142D01*
X139521428Y-98345714D01*
X139450000Y-98274285D01*
X139378571Y-98131428D01*
X139378571Y-97845714D01*
X139450000Y-97702857D01*
X140378571Y-96774285D02*
X140307142Y-96917142D01*
X140235714Y-96988571D01*
X140092857Y-97060000D01*
X139664285Y-97060000D01*
X139521428Y-96988571D01*
X139450000Y-96917142D01*
X139378571Y-96774285D01*
X139378571Y-96560000D01*
X139450000Y-96417142D01*
X139521428Y-96345714D01*
X139664285Y-96274285D01*
X140092857Y-96274285D01*
X140235714Y-96345714D01*
X140307142Y-96417142D01*
X140378571Y-96560000D01*
X140378571Y-96774285D01*
X139378571Y-95774285D02*
X140378571Y-95488571D01*
X139664285Y-95202857D01*
X140378571Y-94917142D01*
X139378571Y-94631428D01*
X139378571Y-94060000D02*
X140378571Y-94060000D01*
X139521428Y-94060000D02*
X139450000Y-93988571D01*
X139378571Y-93845714D01*
X139378571Y-93631428D01*
X139450000Y-93488571D01*
X139592857Y-93417142D01*
X140378571Y-93417142D01*
D11*
X147776900Y-83677944D02*
X147893014Y-83716649D01*
X147931719Y-83755354D01*
X147970424Y-83832763D01*
X147970424Y-83948878D01*
X147931719Y-84026287D01*
X147893014Y-84064992D01*
X147815605Y-84103697D01*
X147505966Y-84103697D01*
X147505966Y-83290897D01*
X147776900Y-83290897D01*
X147854309Y-83329602D01*
X147893014Y-83368306D01*
X147931719Y-83445716D01*
X147931719Y-83523125D01*
X147893014Y-83600535D01*
X147854309Y-83639240D01*
X147776900Y-83677944D01*
X147505966Y-83677944D01*
X148318766Y-83794059D02*
X148938043Y-83794059D01*
X148628405Y-84103697D02*
X148628405Y-83484421D01*
X132155900Y-83677944D02*
X132272014Y-83716649D01*
X132310719Y-83755354D01*
X132349424Y-83832763D01*
X132349424Y-83948878D01*
X132310719Y-84026287D01*
X132272014Y-84064992D01*
X132194605Y-84103697D01*
X131884966Y-84103697D01*
X131884966Y-83290897D01*
X132155900Y-83290897D01*
X132233309Y-83329602D01*
X132272014Y-83368306D01*
X132310719Y-83445716D01*
X132310719Y-83523125D01*
X132272014Y-83600535D01*
X132233309Y-83639240D01*
X132155900Y-83677944D01*
X131884966Y-83677944D01*
X132697766Y-83794059D02*
X133317043Y-83794059D01*
D12*
X91797214Y-84542000D02*
X91797214Y-84161047D01*
X91463880Y-84399142D02*
X92321023Y-84399142D01*
X92416261Y-84351523D01*
X92463880Y-84256285D01*
X92463880Y-84161047D01*
X92416261Y-83446761D02*
X92463880Y-83542000D01*
X92463880Y-83732476D01*
X92416261Y-83827714D01*
X92321023Y-83875333D01*
X91940071Y-83875333D01*
X91844833Y-83827714D01*
X91797214Y-83732476D01*
X91797214Y-83542000D01*
X91844833Y-83446761D01*
X91940071Y-83399142D01*
X92035309Y-83399142D01*
X92130547Y-83875333D01*
X91797214Y-82970571D02*
X92463880Y-82970571D01*
X91892452Y-82970571D02*
X91844833Y-82922952D01*
X91797214Y-82827714D01*
X91797214Y-82684857D01*
X91844833Y-82589619D01*
X91940071Y-82542000D01*
X92463880Y-82542000D01*
X91797214Y-82208666D02*
X91797214Y-81827714D01*
X91463880Y-82065809D02*
X92321023Y-82065809D01*
X92416261Y-82018190D01*
X92463880Y-81922952D01*
X92463880Y-81827714D01*
X92463880Y-81494380D02*
X91797214Y-81494380D01*
X91463880Y-81494380D02*
X91511500Y-81542000D01*
X91559119Y-81494380D01*
X91511500Y-81446761D01*
X91463880Y-81494380D01*
X91559119Y-81494380D01*
X91797214Y-81018190D02*
X92463880Y-81018190D01*
X91892452Y-81018190D02*
X91844833Y-80970571D01*
X91797214Y-80875333D01*
X91797214Y-80732476D01*
X91844833Y-80637238D01*
X91940071Y-80589619D01*
X92463880Y-80589619D01*
X91797214Y-79684857D02*
X92606738Y-79684857D01*
X92701976Y-79732476D01*
X92749595Y-79780095D01*
X92797214Y-79875333D01*
X92797214Y-80018190D01*
X92749595Y-80113428D01*
X92416261Y-79684857D02*
X92463880Y-79780095D01*
X92463880Y-79970571D01*
X92416261Y-80065809D01*
X92368642Y-80113428D01*
X92273404Y-80161047D01*
X91987690Y-80161047D01*
X91892452Y-80113428D01*
X91844833Y-80065809D01*
X91797214Y-79970571D01*
X91797214Y-79780095D01*
X91844833Y-79684857D01*
X91733714Y-70651500D02*
X92733714Y-70651500D01*
X91781333Y-70651500D02*
X91733714Y-70556261D01*
X91733714Y-70365785D01*
X91781333Y-70270547D01*
X91828952Y-70222928D01*
X91924190Y-70175309D01*
X92209904Y-70175309D01*
X92305142Y-70222928D01*
X92352761Y-70270547D01*
X92400380Y-70365785D01*
X92400380Y-70556261D01*
X92352761Y-70651500D01*
X91733714Y-69318166D02*
X92400380Y-69318166D01*
X91733714Y-69746738D02*
X92257523Y-69746738D01*
X92352761Y-69699119D01*
X92400380Y-69603880D01*
X92400380Y-69461023D01*
X92352761Y-69365785D01*
X92305142Y-69318166D01*
X92352761Y-68413404D02*
X92400380Y-68508642D01*
X92400380Y-68699119D01*
X92352761Y-68794357D01*
X92305142Y-68841976D01*
X92209904Y-68889595D01*
X91924190Y-68889595D01*
X91828952Y-68841976D01*
X91781333Y-68794357D01*
X91733714Y-68699119D01*
X91733714Y-68508642D01*
X91781333Y-68413404D01*
X92400380Y-67984833D02*
X91400380Y-67984833D01*
X92019428Y-67889595D02*
X92400380Y-67603880D01*
X91733714Y-67603880D02*
X92114666Y-67984833D01*
D11*
X139268666Y-83394761D02*
X139411523Y-83442380D01*
X139649619Y-83442380D01*
X139744857Y-83394761D01*
X139792476Y-83347142D01*
X139840095Y-83251904D01*
X139840095Y-83156666D01*
X139792476Y-83061428D01*
X139744857Y-83013809D01*
X139649619Y-82966190D01*
X139459142Y-82918571D01*
X139363904Y-82870952D01*
X139316285Y-82823333D01*
X139268666Y-82728095D01*
X139268666Y-82632857D01*
X139316285Y-82537619D01*
X139363904Y-82490000D01*
X139459142Y-82442380D01*
X139697238Y-82442380D01*
X139840095Y-82490000D01*
X140173428Y-82442380D02*
X140411523Y-83442380D01*
X140602000Y-82728095D01*
X140792476Y-83442380D01*
X141030571Y-82442380D01*
X141363904Y-82537619D02*
X141411523Y-82490000D01*
X141506761Y-82442380D01*
X141744857Y-82442380D01*
X141840095Y-82490000D01*
X141887714Y-82537619D01*
X141935333Y-82632857D01*
X141935333Y-82728095D01*
X141887714Y-82870952D01*
X141316285Y-83442380D01*
X141935333Y-83442380D01*
D13*
X134078761Y-86065285D02*
X133912095Y-85708142D01*
X133793047Y-86065285D02*
X133793047Y-85315285D01*
X133983523Y-85315285D01*
X134031142Y-85351000D01*
X134054952Y-85386714D01*
X134078761Y-85458142D01*
X134078761Y-85565285D01*
X134054952Y-85636714D01*
X134031142Y-85672428D01*
X133983523Y-85708142D01*
X133793047Y-85708142D01*
X134269238Y-85851000D02*
X134507333Y-85851000D01*
X134221619Y-86065285D02*
X134388285Y-85315285D01*
X134554952Y-86065285D01*
X134674000Y-85315285D02*
X134793047Y-86065285D01*
X134888285Y-85529571D01*
X134983523Y-86065285D01*
X135102571Y-85315285D01*
X133943047Y-87961000D02*
X133895428Y-87925285D01*
X133824000Y-87925285D01*
X133752571Y-87961000D01*
X133704952Y-88032428D01*
X133681142Y-88103857D01*
X133657333Y-88246714D01*
X133657333Y-88353857D01*
X133681142Y-88496714D01*
X133704952Y-88568142D01*
X133752571Y-88639571D01*
X133824000Y-88675285D01*
X133871619Y-88675285D01*
X133943047Y-88639571D01*
X133966857Y-88603857D01*
X133966857Y-88353857D01*
X133871619Y-88353857D01*
X134181142Y-88675285D02*
X134181142Y-87925285D01*
X134466857Y-88675285D01*
X134466857Y-87925285D01*
X134704952Y-88675285D02*
X134704952Y-87925285D01*
X134824000Y-87925285D01*
X134895428Y-87961000D01*
X134943047Y-88032428D01*
X134966857Y-88103857D01*
X134990666Y-88246714D01*
X134990666Y-88353857D01*
X134966857Y-88496714D01*
X134943047Y-88568142D01*
X134895428Y-88639571D01*
X134824000Y-88675285D01*
X134704952Y-88675285D01*
D11*
D13*
X145593047Y-90491000D02*
X145545428Y-90455285D01*
X145474000Y-90455285D01*
X145402571Y-90491000D01*
X145354952Y-90562428D01*
X145331142Y-90633857D01*
X145307333Y-90776714D01*
X145307333Y-90883857D01*
X145331142Y-91026714D01*
X145354952Y-91098142D01*
X145402571Y-91169571D01*
X145474000Y-91205285D01*
X145521619Y-91205285D01*
X145593047Y-91169571D01*
X145616857Y-91133857D01*
X145616857Y-90883857D01*
X145521619Y-90883857D01*
X145831142Y-91205285D02*
X145831142Y-90455285D01*
X146116857Y-91205285D01*
X146116857Y-90455285D01*
X146354952Y-91205285D02*
X146354952Y-90455285D01*
X146474000Y-90455285D01*
X146545428Y-90491000D01*
X146593047Y-90562428D01*
X146616857Y-90633857D01*
X146640666Y-90776714D01*
X146640666Y-90883857D01*
X146616857Y-91026714D01*
X146593047Y-91098142D01*
X146545428Y-91169571D01*
X146474000Y-91205285D01*
X146354952Y-91205285D01*
X145573047Y-93071000D02*
X145525428Y-93035285D01*
X145454000Y-93035285D01*
X145382571Y-93071000D01*
X145334952Y-93142428D01*
X145311142Y-93213857D01*
X145287333Y-93356714D01*
X145287333Y-93463857D01*
X145311142Y-93606714D01*
X145334952Y-93678142D01*
X145382571Y-93749571D01*
X145454000Y-93785285D01*
X145501619Y-93785285D01*
X145573047Y-93749571D01*
X145596857Y-93713857D01*
X145596857Y-93463857D01*
X145501619Y-93463857D01*
X145811142Y-93785285D02*
X145811142Y-93035285D01*
X146096857Y-93785285D01*
X146096857Y-93035285D01*
X146334952Y-93785285D02*
X146334952Y-93035285D01*
X146454000Y-93035285D01*
X146525428Y-93071000D01*
X146573047Y-93142428D01*
X146596857Y-93213857D01*
X146620666Y-93356714D01*
X146620666Y-93463857D01*
X146596857Y-93606714D01*
X146573047Y-93678142D01*
X146525428Y-93749571D01*
X146454000Y-93785285D01*
X146334952Y-93785285D01*
D14*
X137597571Y-81635285D02*
X137597571Y-80885285D01*
X137847571Y-81421000D01*
X138097571Y-80885285D01*
X138097571Y-81635285D01*
X138454714Y-81635285D02*
X138454714Y-81135285D01*
X138454714Y-80885285D02*
X138419000Y-80921000D01*
X138454714Y-80956714D01*
X138490428Y-80921000D01*
X138454714Y-80885285D01*
X138454714Y-80956714D01*
X139133285Y-81599571D02*
X139061857Y-81635285D01*
X138919000Y-81635285D01*
X138847571Y-81599571D01*
X138811857Y-81563857D01*
X138776142Y-81492428D01*
X138776142Y-81278142D01*
X138811857Y-81206714D01*
X138847571Y-81171000D01*
X138919000Y-81135285D01*
X139061857Y-81135285D01*
X139133285Y-81171000D01*
X139454714Y-81635285D02*
X139454714Y-81135285D01*
X139454714Y-81278142D02*
X139490428Y-81206714D01*
X139526142Y-81171000D01*
X139597571Y-81135285D01*
X139669000Y-81135285D01*
X140026142Y-81635285D02*
X139954714Y-81599571D01*
X139919000Y-81563857D01*
X139883285Y-81492428D01*
X139883285Y-81278142D01*
X139919000Y-81206714D01*
X139954714Y-81171000D01*
X140026142Y-81135285D01*
X140133285Y-81135285D01*
X140204714Y-81171000D01*
X140240428Y-81206714D01*
X140276142Y-81278142D01*
X140276142Y-81492428D01*
X140240428Y-81563857D01*
X140204714Y-81599571D01*
X140133285Y-81635285D01*
X140026142Y-81635285D01*
X140597571Y-80885285D02*
X140597571Y-81492428D01*
X140633285Y-81563857D01*
X140669000Y-81599571D01*
X140740428Y-81635285D01*
X140883285Y-81635285D01*
X140954714Y-81599571D01*
X140990428Y-81563857D01*
X141026142Y-81492428D01*
X141026142Y-80885285D01*
X141347571Y-81599571D02*
X141454714Y-81635285D01*
X141633285Y-81635285D01*
X141704714Y-81599571D01*
X141740428Y-81563857D01*
X141776142Y-81492428D01*
X141776142Y-81421000D01*
X141740428Y-81349571D01*
X141704714Y-81313857D01*
X141633285Y-81278142D01*
X141490428Y-81242428D01*
X141419000Y-81206714D01*
X141383285Y-81171000D01*
X141347571Y-81099571D01*
X141347571Y-81028142D01*
X141383285Y-80956714D01*
X141419000Y-80921000D01*
X141490428Y-80885285D01*
X141669000Y-80885285D01*
X141776142Y-80921000D01*
X142347571Y-81242428D02*
X142454714Y-81278142D01*
X142490428Y-81313857D01*
X142526142Y-81385285D01*
X142526142Y-81492428D01*
X142490428Y-81563857D01*
X142454714Y-81599571D01*
X142383285Y-81635285D01*
X142097571Y-81635285D01*
X142097571Y-80885285D01*
X142347571Y-80885285D01*
X142419000Y-80921000D01*
X142454714Y-80956714D01*
X142490428Y-81028142D01*
X142490428Y-81099571D01*
X142454714Y-81171000D01*
X142419000Y-81206714D01*
X142347571Y-81242428D01*
X142097571Y-81242428D01*
D11*
X168046735Y-83423944D02*
X168162849Y-83462649D01*
X168201554Y-83501354D01*
X168240259Y-83578763D01*
X168240259Y-83694878D01*
X168201554Y-83772287D01*
X168162849Y-83810992D01*
X168085440Y-83849697D01*
X167775801Y-83849697D01*
X167775801Y-83036897D01*
X168046735Y-83036897D01*
X168124144Y-83075602D01*
X168162849Y-83114306D01*
X168201554Y-83191716D01*
X168201554Y-83269125D01*
X168162849Y-83346535D01*
X168124144Y-83385240D01*
X168046735Y-83423944D01*
X167775801Y-83423944D01*
X168588601Y-83540059D02*
X169207878Y-83540059D01*
X152679735Y-83423944D02*
X152795849Y-83462649D01*
X152834554Y-83501354D01*
X152873259Y-83578763D01*
X152873259Y-83694878D01*
X152834554Y-83772287D01*
X152795849Y-83810992D01*
X152718440Y-83849697D01*
X152408801Y-83849697D01*
X152408801Y-83036897D01*
X152679735Y-83036897D01*
X152757144Y-83075602D01*
X152795849Y-83114306D01*
X152834554Y-83191716D01*
X152834554Y-83269125D01*
X152795849Y-83346535D01*
X152757144Y-83385240D01*
X152679735Y-83423944D01*
X152408801Y-83423944D01*
X153221601Y-83540059D02*
X153840878Y-83540059D01*
X153531240Y-83849697D02*
X153531240Y-83230421D01*
D12*
X207865054Y-84669000D02*
X207865054Y-84288047D01*
X207531720Y-84526142D02*
X208388863Y-84526142D01*
X208484101Y-84478523D01*
X208531720Y-84383285D01*
X208531720Y-84288047D01*
X208484101Y-83573761D02*
X208531720Y-83669000D01*
X208531720Y-83859476D01*
X208484101Y-83954714D01*
X208388863Y-84002333D01*
X208007911Y-84002333D01*
X207912673Y-83954714D01*
X207865054Y-83859476D01*
X207865054Y-83669000D01*
X207912673Y-83573761D01*
X208007911Y-83526142D01*
X208103149Y-83526142D01*
X208198387Y-84002333D01*
X207865054Y-83097571D02*
X208531720Y-83097571D01*
X207960292Y-83097571D02*
X207912673Y-83049952D01*
X207865054Y-82954714D01*
X207865054Y-82811857D01*
X207912673Y-82716619D01*
X208007911Y-82669000D01*
X208531720Y-82669000D01*
X207865054Y-82335666D02*
X207865054Y-81954714D01*
X207531720Y-82192809D02*
X208388863Y-82192809D01*
X208484101Y-82145190D01*
X208531720Y-82049952D01*
X208531720Y-81954714D01*
X208531720Y-81621380D02*
X207865054Y-81621380D01*
X207531720Y-81621380D02*
X207579340Y-81669000D01*
X207626959Y-81621380D01*
X207579340Y-81573761D01*
X207531720Y-81621380D01*
X207626959Y-81621380D01*
X207865054Y-81145190D02*
X208531720Y-81145190D01*
X207960292Y-81145190D02*
X207912673Y-81097571D01*
X207865054Y-81002333D01*
X207865054Y-80859476D01*
X207912673Y-80764238D01*
X208007911Y-80716619D01*
X208531720Y-80716619D01*
X207865054Y-79811857D02*
X208674578Y-79811857D01*
X208769816Y-79859476D01*
X208817435Y-79907095D01*
X208865054Y-80002333D01*
X208865054Y-80145190D01*
X208817435Y-80240428D01*
X208484101Y-79811857D02*
X208531720Y-79907095D01*
X208531720Y-80097571D01*
X208484101Y-80192809D01*
X208436482Y-80240428D01*
X208341244Y-80288047D01*
X208055530Y-80288047D01*
X207960292Y-80240428D01*
X207912673Y-80192809D01*
X207865054Y-80097571D01*
X207865054Y-79907095D01*
X207912673Y-79811857D01*
X207801554Y-70778500D02*
X208801554Y-70778500D01*
X207849173Y-70778500D02*
X207801554Y-70683261D01*
X207801554Y-70492785D01*
X207849173Y-70397547D01*
X207896792Y-70349928D01*
X207992030Y-70302309D01*
X208277744Y-70302309D01*
X208372982Y-70349928D01*
X208420601Y-70397547D01*
X208468220Y-70492785D01*
X208468220Y-70683261D01*
X208420601Y-70778500D01*
X207801554Y-69445166D02*
X208468220Y-69445166D01*
X207801554Y-69873738D02*
X208325363Y-69873738D01*
X208420601Y-69826119D01*
X208468220Y-69730880D01*
X208468220Y-69588023D01*
X208420601Y-69492785D01*
X208372982Y-69445166D01*
X208420601Y-68540404D02*
X208468220Y-68635642D01*
X208468220Y-68826119D01*
X208420601Y-68921357D01*
X208372982Y-68968976D01*
X208277744Y-69016595D01*
X207992030Y-69016595D01*
X207896792Y-68968976D01*
X207849173Y-68921357D01*
X207801554Y-68826119D01*
X207801554Y-68635642D01*
X207849173Y-68540404D01*
X208468220Y-68111833D02*
X207468220Y-68111833D01*
X208087268Y-68016595D02*
X208468220Y-67730880D01*
X207801554Y-67730880D02*
X208182506Y-68111833D01*
D11*
X159538506Y-83902761D02*
X159681363Y-83950380D01*
X159919459Y-83950380D01*
X160014697Y-83902761D01*
X160062316Y-83855142D01*
X160109935Y-83759904D01*
X160109935Y-83664666D01*
X160062316Y-83569428D01*
X160014697Y-83521809D01*
X159919459Y-83474190D01*
X159728982Y-83426571D01*
X159633744Y-83378952D01*
X159586125Y-83331333D01*
X159538506Y-83236095D01*
X159538506Y-83140857D01*
X159586125Y-83045619D01*
X159633744Y-82998000D01*
X159728982Y-82950380D01*
X159967078Y-82950380D01*
X160109935Y-82998000D01*
X160443268Y-82950380D02*
X160681363Y-83950380D01*
X160871840Y-83236095D01*
X161062316Y-83950380D01*
X161300411Y-82950380D01*
X161633744Y-83045619D02*
X161681363Y-82998000D01*
X161776601Y-82950380D01*
X162014697Y-82950380D01*
X162109935Y-82998000D01*
X162157554Y-83045619D01*
X162205173Y-83140857D01*
X162205173Y-83236095D01*
X162157554Y-83378952D01*
X161586125Y-83950380D01*
X162205173Y-83950380D01*
D13*
X154502601Y-86065285D02*
X154335935Y-85708142D01*
X154216887Y-86065285D02*
X154216887Y-85315285D01*
X154407363Y-85315285D01*
X154454982Y-85351000D01*
X154478792Y-85386714D01*
X154502601Y-85458142D01*
X154502601Y-85565285D01*
X154478792Y-85636714D01*
X154454982Y-85672428D01*
X154407363Y-85708142D01*
X154216887Y-85708142D01*
X154693078Y-85851000D02*
X154931173Y-85851000D01*
X154645459Y-86065285D02*
X154812125Y-85315285D01*
X154978792Y-86065285D01*
X155097840Y-85315285D02*
X155216887Y-86065285D01*
X155312125Y-85529571D01*
X155407363Y-86065285D01*
X155526411Y-85315285D01*
X165996887Y-93071000D02*
X165949268Y-93035285D01*
X165877840Y-93035285D01*
X165806411Y-93071000D01*
X165758792Y-93142428D01*
X165734982Y-93213857D01*
X165711173Y-93356714D01*
X165711173Y-93463857D01*
X165734982Y-93606714D01*
X165758792Y-93678142D01*
X165806411Y-93749571D01*
X165877840Y-93785285D01*
X165925459Y-93785285D01*
X165996887Y-93749571D01*
X166020697Y-93713857D01*
X166020697Y-93463857D01*
X165925459Y-93463857D01*
X166234982Y-93785285D02*
X166234982Y-93035285D01*
X166520697Y-93785285D01*
X166520697Y-93035285D01*
X166758792Y-93785285D02*
X166758792Y-93035285D01*
X166877840Y-93035285D01*
X166949268Y-93071000D01*
X166996887Y-93142428D01*
X167020697Y-93213857D01*
X167044506Y-93356714D01*
X167044506Y-93463857D01*
X167020697Y-93606714D01*
X166996887Y-93678142D01*
X166949268Y-93749571D01*
X166877840Y-93785285D01*
X166758792Y-93785285D01*
X166016887Y-90491000D02*
X165969268Y-90455285D01*
X165897840Y-90455285D01*
X165826411Y-90491000D01*
X165778792Y-90562428D01*
X165754982Y-90633857D01*
X165731173Y-90776714D01*
X165731173Y-90883857D01*
X165754982Y-91026714D01*
X165778792Y-91098142D01*
X165826411Y-91169571D01*
X165897840Y-91205285D01*
X165945459Y-91205285D01*
X166016887Y-91169571D01*
X166040697Y-91133857D01*
X166040697Y-90883857D01*
X165945459Y-90883857D01*
X166254982Y-91205285D02*
X166254982Y-90455285D01*
X166540697Y-91205285D01*
X166540697Y-90455285D01*
X166778792Y-91205285D02*
X166778792Y-90455285D01*
X166897840Y-90455285D01*
X166969268Y-90491000D01*
X167016887Y-90562428D01*
X167040697Y-90633857D01*
X167064506Y-90776714D01*
X167064506Y-90883857D01*
X167040697Y-91026714D01*
X167016887Y-91098142D01*
X166969268Y-91169571D01*
X166897840Y-91205285D01*
X166778792Y-91205285D01*
X154366887Y-87961000D02*
X154319268Y-87925285D01*
X154247840Y-87925285D01*
X154176411Y-87961000D01*
X154128792Y-88032428D01*
X154104982Y-88103857D01*
X154081173Y-88246714D01*
X154081173Y-88353857D01*
X154104982Y-88496714D01*
X154128792Y-88568142D01*
X154176411Y-88639571D01*
X154247840Y-88675285D01*
X154295459Y-88675285D01*
X154366887Y-88639571D01*
X154390697Y-88603857D01*
X154390697Y-88353857D01*
X154295459Y-88353857D01*
X154604982Y-88675285D02*
X154604982Y-87925285D01*
X154890697Y-88675285D01*
X154890697Y-87925285D01*
X155128792Y-88675285D02*
X155128792Y-87925285D01*
X155247840Y-87925285D01*
X155319268Y-87961000D01*
X155366887Y-88032428D01*
X155390697Y-88103857D01*
X155414506Y-88246714D01*
X155414506Y-88353857D01*
X155390697Y-88496714D01*
X155366887Y-88568142D01*
X155319268Y-88639571D01*
X155247840Y-88675285D01*
X155128792Y-88675285D01*
D11*
D14*
X158021411Y-81635285D02*
X158021411Y-80885285D01*
X158271411Y-81421000D01*
X158521411Y-80885285D01*
X158521411Y-81635285D01*
X158878554Y-81635285D02*
X158878554Y-81135285D01*
X158878554Y-80885285D02*
X158842840Y-80921000D01*
X158878554Y-80956714D01*
X158914268Y-80921000D01*
X158878554Y-80885285D01*
X158878554Y-80956714D01*
X159557125Y-81599571D02*
X159485697Y-81635285D01*
X159342840Y-81635285D01*
X159271411Y-81599571D01*
X159235697Y-81563857D01*
X159199982Y-81492428D01*
X159199982Y-81278142D01*
X159235697Y-81206714D01*
X159271411Y-81171000D01*
X159342840Y-81135285D01*
X159485697Y-81135285D01*
X159557125Y-81171000D01*
X159878554Y-81635285D02*
X159878554Y-81135285D01*
X159878554Y-81278142D02*
X159914268Y-81206714D01*
X159949982Y-81171000D01*
X160021411Y-81135285D01*
X160092840Y-81135285D01*
X160449982Y-81635285D02*
X160378554Y-81599571D01*
X160342840Y-81563857D01*
X160307125Y-81492428D01*
X160307125Y-81278142D01*
X160342840Y-81206714D01*
X160378554Y-81171000D01*
X160449982Y-81135285D01*
X160557125Y-81135285D01*
X160628554Y-81171000D01*
X160664268Y-81206714D01*
X160699982Y-81278142D01*
X160699982Y-81492428D01*
X160664268Y-81563857D01*
X160628554Y-81599571D01*
X160557125Y-81635285D01*
X160449982Y-81635285D01*
X161021411Y-80885285D02*
X161021411Y-81492428D01*
X161057125Y-81563857D01*
X161092840Y-81599571D01*
X161164268Y-81635285D01*
X161307125Y-81635285D01*
X161378554Y-81599571D01*
X161414268Y-81563857D01*
X161449982Y-81492428D01*
X161449982Y-80885285D01*
X161771411Y-81599571D02*
X161878554Y-81635285D01*
X162057125Y-81635285D01*
X162128554Y-81599571D01*
X162164268Y-81563857D01*
X162199982Y-81492428D01*
X162199982Y-81421000D01*
X162164268Y-81349571D01*
X162128554Y-81313857D01*
X162057125Y-81278142D01*
X161914268Y-81242428D01*
X161842840Y-81206714D01*
X161807125Y-81171000D01*
X161771411Y-81099571D01*
X161771411Y-81028142D01*
X161807125Y-80956714D01*
X161842840Y-80921000D01*
X161914268Y-80885285D01*
X162092840Y-80885285D01*
X162199982Y-80921000D01*
X162771411Y-81242428D02*
X162878554Y-81278142D01*
X162914268Y-81313857D01*
X162949982Y-81385285D01*
X162949982Y-81492428D01*
X162914268Y-81563857D01*
X162878554Y-81599571D01*
X162807125Y-81635285D01*
X162521411Y-81635285D01*
X162521411Y-80885285D01*
X162771411Y-80885285D01*
X162842840Y-80921000D01*
X162878554Y-80956714D01*
X162914268Y-81028142D01*
X162914268Y-81099571D01*
X162878554Y-81171000D01*
X162842840Y-81206714D01*
X162771411Y-81242428D01*
X162521411Y-81242428D01*
D11*
X125941619Y-114668380D02*
X125608285Y-114192190D01*
X125370190Y-114668380D02*
X125370190Y-113668380D01*
X125751142Y-113668380D01*
X125846380Y-113716000D01*
X125894000Y-113763619D01*
X125941619Y-113858857D01*
X125941619Y-114001714D01*
X125894000Y-114096952D01*
X125846380Y-114144571D01*
X125751142Y-114192190D01*
X125370190Y-114192190D01*
X126370190Y-114144571D02*
X126703523Y-114144571D01*
X126846380Y-114668380D02*
X126370190Y-114668380D01*
X126370190Y-113668380D01*
X126846380Y-113668380D01*
X127227333Y-114620761D02*
X127370190Y-114668380D01*
X127608285Y-114668380D01*
X127703523Y-114620761D01*
X127751142Y-114573142D01*
X127798761Y-114477904D01*
X127798761Y-114382666D01*
X127751142Y-114287428D01*
X127703523Y-114239809D01*
X127608285Y-114192190D01*
X127417809Y-114144571D01*
X127322571Y-114096952D01*
X127274952Y-114049333D01*
X127227333Y-113954095D01*
X127227333Y-113858857D01*
X127274952Y-113763619D01*
X127322571Y-113716000D01*
X127417809Y-113668380D01*
X127655904Y-113668380D01*
X127798761Y-113716000D01*
X128227333Y-114144571D02*
X128560666Y-114144571D01*
X128703523Y-114668380D02*
X128227333Y-114668380D01*
X128227333Y-113668380D01*
X128703523Y-113668380D01*
X128989238Y-113668380D02*
X129560666Y-113668380D01*
X129274952Y-114668380D02*
X129274952Y-113668380D01*
X170595459Y-114922380D02*
X170262125Y-114446190D01*
X170024030Y-114922380D02*
X170024030Y-113922380D01*
X170404982Y-113922380D01*
X170500220Y-113970000D01*
X170547840Y-114017619D01*
X170595459Y-114112857D01*
X170595459Y-114255714D01*
X170547840Y-114350952D01*
X170500220Y-114398571D01*
X170404982Y-114446190D01*
X170024030Y-114446190D01*
X171024030Y-114398571D02*
X171357363Y-114398571D01*
X171500220Y-114922380D02*
X171024030Y-114922380D01*
X171024030Y-113922380D01*
X171500220Y-113922380D01*
X171881173Y-114874761D02*
X172024030Y-114922380D01*
X172262125Y-114922380D01*
X172357363Y-114874761D01*
X172404982Y-114827142D01*
X172452601Y-114731904D01*
X172452601Y-114636666D01*
X172404982Y-114541428D01*
X172357363Y-114493809D01*
X172262125Y-114446190D01*
X172071649Y-114398571D01*
X171976411Y-114350952D01*
X171928792Y-114303333D01*
X171881173Y-114208095D01*
X171881173Y-114112857D01*
X171928792Y-114017619D01*
X171976411Y-113970000D01*
X172071649Y-113922380D01*
X172309744Y-113922380D01*
X172452601Y-113970000D01*
X172881173Y-114398571D02*
X173214506Y-114398571D01*
X173357363Y-114922380D02*
X172881173Y-114922380D01*
X172881173Y-113922380D01*
X173357363Y-113922380D01*
X173643078Y-113922380D02*
X174214506Y-113922380D01*
X173928792Y-114922380D02*
X173928792Y-113922380D01*
X147190005Y-84736002D02*
X147190005Y-82736002D01*
X147190005Y-82736002D02*
X145190005Y-82736002D01*
X145190005Y-84736002D02*
X147190005Y-84736002D01*
X145190005Y-82736002D02*
X145190005Y-84736002D01*
X135760005Y-82736002D02*
X133760005Y-82736002D01*
X135760005Y-84736002D02*
X135760005Y-82736002D01*
X133760005Y-84736002D02*
X135760005Y-84736002D01*
X133760005Y-82736002D02*
X133760005Y-84736002D01*
D15*
X93330385Y-64448137D02*
G75*
G03*
X92202000Y-64389000I-1128385J-10735763D01*
G01*
X112522000Y-72326500D02*
G75*
G03*
X111488135Y-68175955I-20320019J-2857506D01*
G01*
X89344500Y-54864000D02*
G75*
G03*
X85193952Y-55897866I2857496J-20319983D01*
G01*
X71882000Y-78041500D02*
G75*
G03*
X72915866Y-82192047I20319953J2857490D01*
G01*
X111488135Y-82192046D02*
G75*
G03*
X112522000Y-78041500I-19286185J7008058D01*
G01*
X92202000Y-85979001D02*
G75*
G03*
X93330385Y-85919864I0J10794901D01*
G01*
X99210047Y-55897866D02*
G75*
G03*
X95059500Y-54864000I-7008047J-19286134D01*
G01*
X95059500Y-95504000D02*
G75*
G03*
X99210047Y-94470134I-2857500J20320000D01*
G01*
X85193954Y-94470135D02*
G75*
G03*
X89344500Y-95504000I7008046J19286135D01*
G01*
X91073615Y-85919864D02*
G75*
G03*
X92202000Y-85979000I1128379J10735785D01*
G01*
X92202000Y-64389000D02*
G75*
G03*
X91073615Y-64448136I-6J-10794921D01*
G01*
X72915866Y-68175952D02*
G75*
G03*
X71882000Y-72326500I19286117J-7008044D01*
G01*
G36*
X91382025Y-89672398D02*
G01*
X91404728Y-89695261D01*
X91439207Y-89730792D01*
X91483476Y-89776884D01*
X91535543Y-89831430D01*
X91593422Y-89892324D01*
X91655121Y-89957459D01*
X91718654Y-90024729D01*
X91782029Y-90092027D01*
X91843259Y-90157246D01*
X91900355Y-90218281D01*
X91951327Y-90273024D01*
X91994187Y-90319369D01*
X92026945Y-90355209D01*
X92047613Y-90378438D01*
X92049906Y-90381129D01*
X92078207Y-90414764D01*
X91458193Y-90414764D01*
X91284843Y-90238695D01*
X91231101Y-90183952D01*
X91180818Y-90132439D01*
X91137002Y-90087259D01*
X91102656Y-90051513D01*
X91080788Y-90028304D01*
X91077611Y-90024812D01*
X91043729Y-89986997D01*
X91204764Y-89825653D01*
X91254477Y-89776198D01*
X91298701Y-89732873D01*
X91334848Y-89698160D01*
X91360330Y-89674540D01*
X91372559Y-89664492D01*
X91373090Y-89664309D01*
X91382025Y-89672398D01*
G37*
D16*
X91382025Y-89672398D02*
X91404728Y-89695261D01*
X91439207Y-89730792D01*
X91483476Y-89776884D01*
X91535543Y-89831430D01*
X91593422Y-89892324D01*
X91655121Y-89957459D01*
X91718654Y-90024729D01*
X91782029Y-90092027D01*
X91843259Y-90157246D01*
X91900355Y-90218281D01*
X91951327Y-90273024D01*
X91994187Y-90319369D01*
X92026945Y-90355209D01*
X92047613Y-90378438D01*
X92049906Y-90381129D01*
X92078207Y-90414764D01*
X91458193Y-90414764D01*
X91284843Y-90238695D01*
X91231101Y-90183952D01*
X91180818Y-90132439D01*
X91137002Y-90087259D01*
X91102656Y-90051513D01*
X91080788Y-90028304D01*
X91077611Y-90024812D01*
X91043729Y-89986997D01*
X91204764Y-89825653D01*
X91254477Y-89776198D01*
X91298701Y-89732873D01*
X91334848Y-89698160D01*
X91360330Y-89674540D01*
X91372559Y-89664492D01*
X91373090Y-89664309D01*
X91382025Y-89672398D01*
G36*
X92275889Y-89368589D02*
G01*
X92274486Y-89261960D01*
X92273442Y-89139304D01*
X92272778Y-89002032D01*
X92272517Y-88851558D01*
X92272514Y-88839822D01*
X92272427Y-88148108D01*
X92780131Y-87638082D01*
X92780279Y-88131650D01*
X92780471Y-88235890D01*
X92780960Y-88332635D01*
X92781710Y-88419521D01*
X92782686Y-88494183D01*
X92783855Y-88554258D01*
X92785182Y-88597381D01*
X92786631Y-88621188D01*
X92787539Y-88625218D01*
X92799970Y-88618904D01*
X92824816Y-88602561D01*
X92848950Y-88585359D01*
X92963647Y-88514637D01*
X93085863Y-88465533D01*
X93216246Y-88437857D01*
X93355447Y-88431419D01*
X93373259Y-88432087D01*
X93462894Y-88438639D01*
X93539377Y-88450576D01*
X93611029Y-88470068D01*
X93686167Y-88499285D01*
X93756018Y-88531924D01*
X93883951Y-88607217D01*
X93996871Y-88699197D01*
X94093765Y-88806186D01*
X94173623Y-88926511D01*
X94235433Y-89058496D01*
X94278185Y-89200465D01*
X94300866Y-89350744D01*
X94304427Y-89440414D01*
X94294136Y-89592892D01*
X94262780Y-89737456D01*
X94209635Y-89876692D01*
X94152380Y-89983611D01*
X94066668Y-90103904D01*
X93965055Y-90208753D01*
X93849722Y-90297075D01*
X93722847Y-90367789D01*
X93586611Y-90419812D01*
X93443192Y-90452065D01*
X93294771Y-90463464D01*
X93194525Y-90458981D01*
X93049917Y-90434100D01*
X92909349Y-90387825D01*
X92776176Y-90321846D01*
X92653756Y-90237849D01*
X92545444Y-90137523D01*
X92537050Y-90128357D01*
X92455919Y-90024237D01*
X92386227Y-89906055D01*
X92331061Y-89780192D01*
X92293508Y-89653032D01*
X92284639Y-89606582D01*
X92282026Y-89578187D01*
X92279681Y-89528115D01*
X92278212Y-89477781D01*
X92774550Y-89477781D01*
X92785122Y-89575330D01*
X92815554Y-89669349D01*
X92844208Y-89723494D01*
X92911142Y-89811777D01*
X92990623Y-89882654D01*
X93080055Y-89935147D01*
X93176841Y-89968279D01*
X93278382Y-89981073D01*
X93382083Y-89972552D01*
X93454910Y-89953264D01*
X93497907Y-89937178D01*
X93538812Y-89919818D01*
X93554979Y-89912042D01*
X93600265Y-89881038D01*
X93649588Y-89834844D01*
X93697645Y-89779388D01*
X93739130Y-89720594D01*
X93760618Y-89682267D01*
X93780799Y-89638021D01*
X93793444Y-89599413D01*
X93800801Y-89557121D01*
X93805119Y-89501818D01*
X93805401Y-89496528D01*
X93802033Y-89389283D01*
X93779177Y-89291391D01*
X93735525Y-89197968D01*
X93717755Y-89169439D01*
X93653213Y-89091535D01*
X93574396Y-89029365D01*
X93484760Y-88983869D01*
X93387761Y-88955991D01*
X93286857Y-88946671D01*
X93185505Y-88956853D01*
X93087159Y-88987478D01*
X93073156Y-88993764D01*
X92985204Y-89046713D01*
X92911214Y-89114927D01*
X92852171Y-89195273D01*
X92809058Y-89284620D01*
X92782856Y-89379833D01*
X92774550Y-89477781D01*
X92278212Y-89477781D01*
X92277628Y-89457778D01*
X92275889Y-89368589D01*
G37*
X92275889Y-89368589D02*
X92274486Y-89261960D01*
X92273442Y-89139304D01*
X92272778Y-89002032D01*
X92272517Y-88851558D01*
X92272514Y-88839822D01*
X92272427Y-88148108D01*
X92780131Y-87638082D01*
X92780279Y-88131650D01*
X92780471Y-88235890D01*
X92780960Y-88332635D01*
X92781710Y-88419521D01*
X92782686Y-88494183D01*
X92783855Y-88554258D01*
X92785182Y-88597381D01*
X92786631Y-88621188D01*
X92787539Y-88625218D01*
X92799970Y-88618904D01*
X92824816Y-88602561D01*
X92848950Y-88585359D01*
X92963647Y-88514637D01*
X93085863Y-88465533D01*
X93216246Y-88437857D01*
X93355447Y-88431419D01*
X93373259Y-88432087D01*
X93462894Y-88438639D01*
X93539377Y-88450576D01*
X93611029Y-88470068D01*
X93686167Y-88499285D01*
X93756018Y-88531924D01*
X93883951Y-88607217D01*
X93996871Y-88699197D01*
X94093765Y-88806186D01*
X94173623Y-88926511D01*
X94235433Y-89058496D01*
X94278185Y-89200465D01*
X94300866Y-89350744D01*
X94304427Y-89440414D01*
X94294136Y-89592892D01*
X94262780Y-89737456D01*
X94209635Y-89876692D01*
X94152380Y-89983611D01*
X94066668Y-90103904D01*
X93965055Y-90208753D01*
X93849722Y-90297075D01*
X93722847Y-90367789D01*
X93586611Y-90419812D01*
X93443192Y-90452065D01*
X93294771Y-90463464D01*
X93194525Y-90458981D01*
X93049917Y-90434100D01*
X92909349Y-90387825D01*
X92776176Y-90321846D01*
X92653756Y-90237849D01*
X92545444Y-90137523D01*
X92537050Y-90128357D01*
X92455919Y-90024237D01*
X92386227Y-89906055D01*
X92331061Y-89780192D01*
X92293508Y-89653032D01*
X92284639Y-89606582D01*
X92282026Y-89578187D01*
X92279681Y-89528115D01*
X92278212Y-89477781D01*
X92774550Y-89477781D01*
X92785122Y-89575330D01*
X92815554Y-89669349D01*
X92844208Y-89723494D01*
X92911142Y-89811777D01*
X92990623Y-89882654D01*
X93080055Y-89935147D01*
X93176841Y-89968279D01*
X93278382Y-89981073D01*
X93382083Y-89972552D01*
X93454910Y-89953264D01*
X93497907Y-89937178D01*
X93538812Y-89919818D01*
X93554979Y-89912042D01*
X93600265Y-89881038D01*
X93649588Y-89834844D01*
X93697645Y-89779388D01*
X93739130Y-89720594D01*
X93760618Y-89682267D01*
X93780799Y-89638021D01*
X93793444Y-89599413D01*
X93800801Y-89557121D01*
X93805119Y-89501818D01*
X93805401Y-89496528D01*
X93802033Y-89389283D01*
X93779177Y-89291391D01*
X93735525Y-89197968D01*
X93717755Y-89169439D01*
X93653213Y-89091535D01*
X93574396Y-89029365D01*
X93484760Y-88983869D01*
X93387761Y-88955991D01*
X93286857Y-88946671D01*
X93185505Y-88956853D01*
X93087159Y-88987478D01*
X93073156Y-88993764D01*
X92985204Y-89046713D01*
X92911214Y-89114927D01*
X92852171Y-89195273D01*
X92809058Y-89284620D01*
X92782856Y-89379833D01*
X92774550Y-89477781D01*
X92278212Y-89477781D01*
X92277628Y-89457778D01*
X92275889Y-89368589D01*
G36*
X90575245Y-89265867D02*
G01*
X91378191Y-88463167D01*
X91666559Y-88466261D01*
X91954927Y-88469354D01*
X91107703Y-89329491D01*
X90989778Y-89449214D01*
X90874979Y-89565763D01*
X90764525Y-89677903D01*
X90659633Y-89784396D01*
X90561521Y-89884007D01*
X90471406Y-89975500D01*
X90390507Y-90057637D01*
X90320040Y-90129182D01*
X90261224Y-90188900D01*
X90215277Y-90235554D01*
X90183416Y-90267907D01*
X90169635Y-90281903D01*
X90078791Y-90374179D01*
X90078791Y-87632309D01*
X90575245Y-87632309D01*
X90575245Y-89265867D01*
G37*
X90575245Y-89265867D02*
X91378191Y-88463167D01*
X91666559Y-88466261D01*
X91954927Y-88469354D01*
X91107703Y-89329491D01*
X90989778Y-89449214D01*
X90874979Y-89565763D01*
X90764525Y-89677903D01*
X90659633Y-89784396D01*
X90561521Y-89884007D01*
X90471406Y-89975500D01*
X90390507Y-90057637D01*
X90320040Y-90129182D01*
X90261224Y-90188900D01*
X90215277Y-90235554D01*
X90183416Y-90267907D01*
X90169635Y-90281903D01*
X90078791Y-90374179D01*
X90078791Y-87632309D01*
X90575245Y-87632309D01*
X90575245Y-89265867D01*
D14*
X125744000Y-117902000D02*
X129044000Y-117902000D01*
X125744000Y-115402000D02*
X125744000Y-115102000D01*
X125744000Y-117602000D02*
X125744000Y-117902000D01*
X129044000Y-115102000D02*
X129044000Y-115402000D01*
X125744000Y-115102000D02*
X129044000Y-115102000D01*
X129044000Y-117902000D02*
X129044000Y-117602000D01*
D11*
X148994000Y-81946000D02*
X148994000Y-82946000D01*
X131194000Y-113946000D02*
X131194000Y-114996000D01*
X131194000Y-114996000D02*
X132194000Y-114996000D01*
X148994000Y-114996000D02*
X147984000Y-114996000D01*
X143844000Y-79046000D02*
X136344000Y-79046000D01*
X140094000Y-80046000D02*
X139594000Y-79396000D01*
X139744000Y-79546000D02*
X140444000Y-79546000D01*
X148994000Y-81946000D02*
X148044000Y-81946000D01*
X139594000Y-79396000D02*
X140594000Y-79396000D01*
X143844000Y-80346000D02*
X143844000Y-79046000D01*
X136344000Y-79046000D02*
X136344000Y-80346000D01*
X136344000Y-80346000D02*
X143844000Y-80346000D01*
X139944000Y-79846000D02*
X140244000Y-79846000D01*
X131194000Y-81946000D02*
X131194000Y-82946000D01*
X139844000Y-79696000D02*
X140344000Y-79696000D01*
X140594000Y-79396000D02*
X140094000Y-80046000D01*
X131194000Y-81946000D02*
X132194000Y-81946000D01*
X148994000Y-113996000D02*
X148994000Y-114996000D01*
X167459840Y-82482002D02*
X165459840Y-82482002D01*
X167459840Y-84482002D02*
X167459840Y-82482002D01*
X165459840Y-82482002D02*
X165459840Y-84482002D01*
X165459840Y-84482002D02*
X167459840Y-84482002D01*
D14*
X173697840Y-118156000D02*
X173697840Y-117856000D01*
X170397840Y-115656000D02*
X170397840Y-115356000D01*
X173697840Y-115356000D02*
X173697840Y-115656000D01*
X170397840Y-115356000D02*
X173697840Y-115356000D01*
X170397840Y-117856000D02*
X170397840Y-118156000D01*
X170397840Y-118156000D02*
X173697840Y-118156000D01*
D11*
X154029840Y-84482002D02*
X156029840Y-84482002D01*
X156029840Y-82482002D02*
X154029840Y-82482002D01*
X154029840Y-82482002D02*
X154029840Y-84482002D01*
X156029840Y-84482002D02*
X156029840Y-82482002D01*
D15*
X209398225Y-64575137D02*
G75*
G03*
X208269840Y-64516000I-1128385J-10735763D01*
G01*
X211127340Y-95631000D02*
G75*
G03*
X215277887Y-94597134I-2857500J20320000D01*
G01*
X188983706Y-68302952D02*
G75*
G03*
X187949840Y-72453500I19286117J-7008044D01*
G01*
X207141455Y-86046864D02*
G75*
G03*
X208269840Y-86106000I1128379J10735785D01*
G01*
X205412340Y-54991000D02*
G75*
G03*
X201261792Y-56024866I2857496J-20319983D01*
G01*
X208269840Y-64516000D02*
G75*
G03*
X207141455Y-64575136I-6J-10794921D01*
G01*
X208269840Y-86106001D02*
G75*
G03*
X209398225Y-86046864I0J10794901D01*
G01*
X215277887Y-56024866D02*
G75*
G03*
X211127340Y-54991000I-7008047J-19286134D01*
G01*
X187949840Y-78168500D02*
G75*
G03*
X188983706Y-82319047I20319953J2857490D01*
G01*
X228589840Y-72453500D02*
G75*
G03*
X227555975Y-68302955I-20320019J-2857506D01*
G01*
X201261794Y-94597135D02*
G75*
G03*
X205412340Y-95631000I7008046J19286135D01*
G01*
X227555975Y-82319046D02*
G75*
G03*
X228589840Y-78168500I-19286185J7008058D01*
G01*
G36*
X206643085Y-89392867D02*
G01*
X207446031Y-88590167D01*
X207734399Y-88593261D01*
X208022767Y-88596354D01*
X207175543Y-89456491D01*
X207057618Y-89576214D01*
X206942819Y-89692763D01*
X206832365Y-89804903D01*
X206727473Y-89911396D01*
X206629361Y-90011007D01*
X206539246Y-90102500D01*
X206458347Y-90184637D01*
X206387880Y-90256182D01*
X206329064Y-90315900D01*
X206283117Y-90362554D01*
X206251256Y-90394907D01*
X206237475Y-90408903D01*
X206146631Y-90501179D01*
X206146631Y-87759309D01*
X206643085Y-87759309D01*
X206643085Y-89392867D01*
G37*
D16*
X206643085Y-89392867D02*
X207446031Y-88590167D01*
X207734399Y-88593261D01*
X208022767Y-88596354D01*
X207175543Y-89456491D01*
X207057618Y-89576214D01*
X206942819Y-89692763D01*
X206832365Y-89804903D01*
X206727473Y-89911396D01*
X206629361Y-90011007D01*
X206539246Y-90102500D01*
X206458347Y-90184637D01*
X206387880Y-90256182D01*
X206329064Y-90315900D01*
X206283117Y-90362554D01*
X206251256Y-90394907D01*
X206237475Y-90408903D01*
X206146631Y-90501179D01*
X206146631Y-87759309D01*
X206643085Y-87759309D01*
X206643085Y-89392867D01*
G36*
X208343729Y-89495589D02*
G01*
X208342326Y-89388960D01*
X208341282Y-89266304D01*
X208340618Y-89129032D01*
X208340357Y-88978558D01*
X208340354Y-88966822D01*
X208340267Y-88275108D01*
X208847971Y-87765082D01*
X208848119Y-88258650D01*
X208848311Y-88362890D01*
X208848800Y-88459635D01*
X208849550Y-88546521D01*
X208850526Y-88621183D01*
X208851695Y-88681258D01*
X208853022Y-88724381D01*
X208854471Y-88748188D01*
X208855379Y-88752218D01*
X208867810Y-88745904D01*
X208892656Y-88729561D01*
X208916790Y-88712359D01*
X209031487Y-88641637D01*
X209153703Y-88592533D01*
X209284086Y-88564857D01*
X209423287Y-88558419D01*
X209441099Y-88559087D01*
X209530734Y-88565639D01*
X209607217Y-88577576D01*
X209678869Y-88597068D01*
X209754007Y-88626285D01*
X209823858Y-88658924D01*
X209951791Y-88734217D01*
X210064711Y-88826197D01*
X210161605Y-88933186D01*
X210241463Y-89053511D01*
X210303273Y-89185496D01*
X210346025Y-89327465D01*
X210368706Y-89477744D01*
X210372267Y-89567414D01*
X210361976Y-89719892D01*
X210330620Y-89864456D01*
X210277475Y-90003692D01*
X210220220Y-90110611D01*
X210134508Y-90230904D01*
X210032895Y-90335753D01*
X209917562Y-90424075D01*
X209790687Y-90494789D01*
X209654451Y-90546812D01*
X209511032Y-90579065D01*
X209362611Y-90590464D01*
X209262365Y-90585981D01*
X209117757Y-90561100D01*
X208977189Y-90514825D01*
X208844016Y-90448846D01*
X208721596Y-90364849D01*
X208613284Y-90264523D01*
X208604890Y-90255357D01*
X208523759Y-90151237D01*
X208454067Y-90033055D01*
X208398901Y-89907192D01*
X208361348Y-89780032D01*
X208352479Y-89733582D01*
X208349866Y-89705187D01*
X208347521Y-89655115D01*
X208346052Y-89604781D01*
X208842390Y-89604781D01*
X208852962Y-89702330D01*
X208883394Y-89796349D01*
X208912048Y-89850494D01*
X208978982Y-89938777D01*
X209058463Y-90009654D01*
X209147895Y-90062147D01*
X209244681Y-90095279D01*
X209346222Y-90108073D01*
X209449923Y-90099552D01*
X209522750Y-90080264D01*
X209565747Y-90064178D01*
X209606652Y-90046818D01*
X209622819Y-90039042D01*
X209668105Y-90008038D01*
X209717428Y-89961844D01*
X209765485Y-89906388D01*
X209806970Y-89847594D01*
X209828458Y-89809267D01*
X209848639Y-89765021D01*
X209861284Y-89726413D01*
X209868641Y-89684121D01*
X209872959Y-89628818D01*
X209873241Y-89623528D01*
X209869873Y-89516283D01*
X209847017Y-89418391D01*
X209803365Y-89324968D01*
X209785595Y-89296439D01*
X209721053Y-89218535D01*
X209642236Y-89156365D01*
X209552600Y-89110869D01*
X209455601Y-89082991D01*
X209354697Y-89073671D01*
X209253345Y-89083853D01*
X209154999Y-89114478D01*
X209140996Y-89120764D01*
X209053044Y-89173713D01*
X208979054Y-89241927D01*
X208920011Y-89322273D01*
X208876898Y-89411620D01*
X208850696Y-89506833D01*
X208842390Y-89604781D01*
X208346052Y-89604781D01*
X208345468Y-89584778D01*
X208343729Y-89495589D01*
G37*
X208343729Y-89495589D02*
X208342326Y-89388960D01*
X208341282Y-89266304D01*
X208340618Y-89129032D01*
X208340357Y-88978558D01*
X208340354Y-88966822D01*
X208340267Y-88275108D01*
X208847971Y-87765082D01*
X208848119Y-88258650D01*
X208848311Y-88362890D01*
X208848800Y-88459635D01*
X208849550Y-88546521D01*
X208850526Y-88621183D01*
X208851695Y-88681258D01*
X208853022Y-88724381D01*
X208854471Y-88748188D01*
X208855379Y-88752218D01*
X208867810Y-88745904D01*
X208892656Y-88729561D01*
X208916790Y-88712359D01*
X209031487Y-88641637D01*
X209153703Y-88592533D01*
X209284086Y-88564857D01*
X209423287Y-88558419D01*
X209441099Y-88559087D01*
X209530734Y-88565639D01*
X209607217Y-88577576D01*
X209678869Y-88597068D01*
X209754007Y-88626285D01*
X209823858Y-88658924D01*
X209951791Y-88734217D01*
X210064711Y-88826197D01*
X210161605Y-88933186D01*
X210241463Y-89053511D01*
X210303273Y-89185496D01*
X210346025Y-89327465D01*
X210368706Y-89477744D01*
X210372267Y-89567414D01*
X210361976Y-89719892D01*
X210330620Y-89864456D01*
X210277475Y-90003692D01*
X210220220Y-90110611D01*
X210134508Y-90230904D01*
X210032895Y-90335753D01*
X209917562Y-90424075D01*
X209790687Y-90494789D01*
X209654451Y-90546812D01*
X209511032Y-90579065D01*
X209362611Y-90590464D01*
X209262365Y-90585981D01*
X209117757Y-90561100D01*
X208977189Y-90514825D01*
X208844016Y-90448846D01*
X208721596Y-90364849D01*
X208613284Y-90264523D01*
X208604890Y-90255357D01*
X208523759Y-90151237D01*
X208454067Y-90033055D01*
X208398901Y-89907192D01*
X208361348Y-89780032D01*
X208352479Y-89733582D01*
X208349866Y-89705187D01*
X208347521Y-89655115D01*
X208346052Y-89604781D01*
X208842390Y-89604781D01*
X208852962Y-89702330D01*
X208883394Y-89796349D01*
X208912048Y-89850494D01*
X208978982Y-89938777D01*
X209058463Y-90009654D01*
X209147895Y-90062147D01*
X209244681Y-90095279D01*
X209346222Y-90108073D01*
X209449923Y-90099552D01*
X209522750Y-90080264D01*
X209565747Y-90064178D01*
X209606652Y-90046818D01*
X209622819Y-90039042D01*
X209668105Y-90008038D01*
X209717428Y-89961844D01*
X209765485Y-89906388D01*
X209806970Y-89847594D01*
X209828458Y-89809267D01*
X209848639Y-89765021D01*
X209861284Y-89726413D01*
X209868641Y-89684121D01*
X209872959Y-89628818D01*
X209873241Y-89623528D01*
X209869873Y-89516283D01*
X209847017Y-89418391D01*
X209803365Y-89324968D01*
X209785595Y-89296439D01*
X209721053Y-89218535D01*
X209642236Y-89156365D01*
X209552600Y-89110869D01*
X209455601Y-89082991D01*
X209354697Y-89073671D01*
X209253345Y-89083853D01*
X209154999Y-89114478D01*
X209140996Y-89120764D01*
X209053044Y-89173713D01*
X208979054Y-89241927D01*
X208920011Y-89322273D01*
X208876898Y-89411620D01*
X208850696Y-89506833D01*
X208842390Y-89604781D01*
X208346052Y-89604781D01*
X208345468Y-89584778D01*
X208343729Y-89495589D01*
G36*
X207449865Y-89799398D02*
G01*
X207472568Y-89822261D01*
X207507047Y-89857792D01*
X207551316Y-89903884D01*
X207603383Y-89958430D01*
X207661262Y-90019324D01*
X207722961Y-90084459D01*
X207786494Y-90151729D01*
X207849869Y-90219027D01*
X207911099Y-90284246D01*
X207968195Y-90345281D01*
X208019167Y-90400024D01*
X208062027Y-90446369D01*
X208094785Y-90482209D01*
X208115453Y-90505438D01*
X208117746Y-90508129D01*
X208146047Y-90541764D01*
X207526033Y-90541764D01*
X207352683Y-90365695D01*
X207298941Y-90310952D01*
X207248658Y-90259439D01*
X207204842Y-90214259D01*
X207170496Y-90178513D01*
X207148628Y-90155304D01*
X207145451Y-90151812D01*
X207111569Y-90113997D01*
X207272604Y-89952653D01*
X207322317Y-89903198D01*
X207366541Y-89859873D01*
X207402688Y-89825160D01*
X207428170Y-89801540D01*
X207440399Y-89791492D01*
X207440930Y-89791309D01*
X207449865Y-89799398D01*
G37*
X207449865Y-89799398D02*
X207472568Y-89822261D01*
X207507047Y-89857792D01*
X207551316Y-89903884D01*
X207603383Y-89958430D01*
X207661262Y-90019324D01*
X207722961Y-90084459D01*
X207786494Y-90151729D01*
X207849869Y-90219027D01*
X207911099Y-90284246D01*
X207968195Y-90345281D01*
X208019167Y-90400024D01*
X208062027Y-90446369D01*
X208094785Y-90482209D01*
X208115453Y-90505438D01*
X208117746Y-90508129D01*
X208146047Y-90541764D01*
X207526033Y-90541764D01*
X207352683Y-90365695D01*
X207298941Y-90310952D01*
X207248658Y-90259439D01*
X207204842Y-90214259D01*
X207170496Y-90178513D01*
X207148628Y-90155304D01*
X207145451Y-90151812D01*
X207111569Y-90113997D01*
X207272604Y-89952653D01*
X207322317Y-89903198D01*
X207366541Y-89859873D01*
X207402688Y-89825160D01*
X207428170Y-89801540D01*
X207440399Y-89791492D01*
X207440930Y-89791309D01*
X207449865Y-89799398D01*
D11*
X154267840Y-115684000D02*
X154267840Y-121784000D01*
X154267840Y-115684000D02*
X166367840Y-115684000D01*
X154267840Y-115934000D02*
X152267840Y-115934000D01*
X152267840Y-115934000D02*
X152267840Y-121534000D01*
X154267840Y-121534000D02*
X152267840Y-121534000D01*
X154267840Y-121784000D02*
X166367840Y-121784000D01*
X166367840Y-115684000D02*
X166367840Y-121784000D01*
X160367840Y-79846000D02*
X160667840Y-79846000D01*
X169417840Y-113996000D02*
X169417840Y-114996000D01*
X169417840Y-114996000D02*
X168407840Y-114996000D01*
X156767840Y-80346000D02*
X164267840Y-80346000D01*
X151617840Y-81946000D02*
X152617840Y-81946000D01*
X156767840Y-79046000D02*
X156767840Y-80346000D01*
X160017840Y-79396000D02*
X161017840Y-79396000D01*
X160267840Y-79696000D02*
X160767840Y-79696000D01*
X160167840Y-79546000D02*
X160867840Y-79546000D01*
X151617840Y-81946000D02*
X151617840Y-82946000D01*
X169417840Y-81946000D02*
X169417840Y-82946000D01*
X151617840Y-114996000D02*
X152617840Y-114996000D01*
X151617840Y-113946000D02*
X151617840Y-114996000D01*
X169417840Y-81946000D02*
X168467840Y-81946000D01*
X164267840Y-80346000D02*
X164267840Y-79046000D01*
X160517840Y-80046000D02*
X160017840Y-79396000D01*
X161017840Y-79396000D02*
X160517840Y-80046000D01*
X164267840Y-79046000D02*
X156767840Y-79046000D01*
D12*
X151241000Y-93599000D02*
G75*
G03*
X149241000Y-93599000I-1000000J0D01*
G01*
X149241000Y-87757000D02*
G75*
G03*
X151241000Y-87757000I1000000J0D01*
G01*
X151241000Y-114109500D02*
G75*
G03*
X149241000Y-114109500I-1000000J0D01*
G01*
X149241000Y-108267500D02*
G75*
G03*
X151241000Y-108267500I1000000J0D01*
G01*
D11*
X146190000Y-121784000D02*
X134090000Y-121784000D01*
X146190000Y-121784000D02*
X146190000Y-115684000D01*
X134090000Y-121784000D02*
X134090000Y-115684000D01*
X148190000Y-121534000D02*
X148190000Y-115934000D01*
X146190000Y-121534000D02*
X148190000Y-121534000D01*
X146190000Y-115934000D02*
X148190000Y-115934000D01*
X146190000Y-115684000D02*
X134090000Y-115684000D01*
D17*
X146190005Y-83736002D03*
X134760005Y-83736002D03*
D18*
X147705400Y-85768000D03*
X147705400Y-88308000D03*
X147705400Y-90848000D03*
X147705400Y-93388000D03*
X147705400Y-95928000D03*
X147705400Y-98468000D03*
X147705400Y-101008000D03*
X147705400Y-103548000D03*
X147705400Y-106088000D03*
X147705400Y-108628000D03*
X147705400Y-111168000D03*
X147705400Y-113708000D03*
X132485400Y-113708000D03*
X132485400Y-111168000D03*
X132485400Y-108628000D03*
X132485400Y-106088000D03*
X132485400Y-103548000D03*
X132485400Y-101008000D03*
X132485400Y-98468000D03*
X132485400Y-95928000D03*
X132485400Y-93388000D03*
X132485400Y-90848000D03*
X132485400Y-88308000D03*
X132485400Y-85768000D03*
D17*
X166459840Y-83482002D03*
X155029840Y-83482002D03*
D18*
X168129240Y-85768000D03*
X168129240Y-88308000D03*
X168129240Y-90848000D03*
X168129240Y-93388000D03*
X168129240Y-95928000D03*
X168129240Y-98468000D03*
X168129240Y-101008000D03*
X168129240Y-103548000D03*
X168129240Y-106088000D03*
X168129240Y-108628000D03*
X168129240Y-111168000D03*
X168129240Y-113708000D03*
X152909240Y-113708000D03*
X152909240Y-111168000D03*
X152909240Y-108628000D03*
X152909240Y-106088000D03*
X152909240Y-103548000D03*
X152909240Y-101008000D03*
X152909240Y-98468000D03*
X152909240Y-95928000D03*
X152909240Y-93388000D03*
X152909240Y-90848000D03*
X152909240Y-88308000D03*
X152909240Y-85768000D03*
%LPC*%
D17*
X146190005Y-83736002D03*
X134760005Y-83736002D03*
D19*
X92202000Y-94234000D03*
X92202000Y-56134000D03*
X111252000Y-75184000D03*
X73152000Y-75184000D03*
D20*
X136902000Y-82890000D03*
X136902000Y-85090000D03*
X144302000Y-85090000D03*
X144302000Y-82890000D03*
D21*
X142852000Y-86065000D03*
X139852000Y-86065000D03*
X138352000Y-86065000D03*
D22*
X125694000Y-116502000D03*
X129094000Y-116502000D03*
D17*
X166459840Y-83482002D03*
D22*
X170347840Y-116756000D03*
X173747840Y-116756000D03*
D17*
X155029840Y-83482002D03*
D19*
X208269840Y-56261000D03*
X189219840Y-75311000D03*
X208269840Y-94361000D03*
X227319840Y-75311000D03*
D20*
X164571840Y-85598000D03*
X164571840Y-83398000D03*
X157171840Y-83398000D03*
X157171840Y-85598000D03*
D21*
X163121840Y-86573000D03*
X160121840Y-86573000D03*
X158621840Y-86573000D03*
D23*
X155867840Y-118734000D03*
X162867840Y-118734000D03*
D24*
X160467840Y-116434000D03*
X160487840Y-121064000D03*
X157487840Y-121064000D03*
X157467840Y-116434000D03*
X165567840Y-121034000D03*
X165587840Y-116464000D03*
X164467840Y-116434000D03*
X164487840Y-121064000D03*
D25*
X151257000Y-92710000D03*
X149225000Y-88646000D03*
X149225000Y-91694000D03*
X149225000Y-90678000D03*
X151257000Y-91694000D03*
X151257000Y-90678000D03*
X151257000Y-89662000D03*
X149225000Y-92710000D03*
X151257000Y-88646000D03*
X149225000Y-89662000D03*
X149225000Y-109156500D03*
X151257000Y-112204500D03*
X151257000Y-110172500D03*
X151257000Y-109156500D03*
X149225000Y-110172500D03*
X151257000Y-111188500D03*
X149225000Y-113220500D03*
X151257000Y-113220500D03*
X149225000Y-111188500D03*
X149225000Y-112204500D03*
D23*
X137590000Y-118734000D03*
X144590000Y-118734000D03*
D24*
X139990000Y-121034000D03*
X139970000Y-116404000D03*
X142990000Y-121034000D03*
X142970000Y-116404000D03*
X134870000Y-121004000D03*
X134890000Y-116434000D03*
X135970000Y-116404000D03*
X135990000Y-121034000D03*
D26*
X142102000Y-83990000D03*
X139102000Y-83990000D03*
X159371840Y-84498000D03*
X162371840Y-84498000D03*
M02*
